<svg width="167" height="45" viewBox="0 0 167 45" fill="none" xmlns="http://www.w3.org/2000/svg">
<path d="M1.53729 8.31116C1.44645 7.96386 1.09127 7.75595 0.743968 7.84679C0.396666 7.93763 0.188762 8.29282 0.279602 8.64012L1.53729 8.31116ZM59.2419 21.6665L58.761 21.2293L58.7385 21.254L58.7187 21.281L59.2419 21.6665ZM62.7419 3.66654L62.2914 4.13501L62.2914 4.13501L62.7419 3.66654ZM47.7419 8.47564L48.3337 8.74461L47.7419 8.47564ZM49.4329 29.1493L48.8516 29.44L49.4329 29.1493ZM102.5 27.5L102.19 26.9287L102.5 27.5ZM110.634 5.52226L111.156 5.13548L111.138 5.11147L111.118 5.0892L110.634 5.52226ZM99.1482 8.47566L99.6792 8.8505L99.1482 8.47566ZM116.54 43.1779L116.684 42.544L116.54 43.1779ZM166.091 43.9162L163.357 36.9266L158.671 42.7897L166.091 43.9162ZM1.18359 11.5604C1.30524 11.8981 1.67765 12.0733 2.0154 11.9516C2.35314 11.83 2.52832 11.4576 2.40666 11.1198L1.18359 11.5604ZM4.91663 16.4112C4.73096 16.104 4.33138 16.0054 4.02414 16.1911C3.71689 16.3768 3.61834 16.7763 3.80401 17.0836L4.91663 16.4112ZM7.49282 21.9549C7.73835 22.2168 8.14969 22.2301 8.41158 21.9845C8.67347 21.739 8.68674 21.3277 8.44121 21.0658L7.49282 21.9549ZM12.8585 24.897C12.565 24.6903 12.1595 24.7607 11.9528 25.0541C11.7461 25.3476 11.8164 25.7531 12.1099 25.9599L12.8585 24.897ZM17.4079 28.9863C17.7345 29.1352 18.1201 28.9912 18.269 28.6646C18.4179 28.3379 18.2739 27.9524 17.9473 27.8035L17.4079 28.9863ZM23.48 29.7834C23.1334 29.6901 22.7767 29.8955 22.6835 30.2422C22.5902 30.5889 22.7956 30.9455 23.1423 31.0388L23.48 29.7834ZM29.1173 32.1725C29.4739 32.2135 29.7962 31.9576 29.8372 31.6009C29.8782 31.2443 29.6223 30.9219 29.2656 30.881L29.1173 32.1725ZM35.1556 31.1417C34.7967 31.1508 34.5131 31.449 34.5221 31.8079C34.5311 32.1667 34.8294 32.4503 35.1882 32.4413L35.1556 31.1417ZM41.2394 31.8665C41.5935 31.8074 41.8327 31.4724 41.7736 31.1183C41.7145 30.7643 41.3795 30.5251 41.0255 30.5842L41.2394 31.8665ZM46.7398 29.1832C46.399 29.2959 46.214 29.6635 46.3266 30.0044C46.4393 30.3452 46.8069 30.5302 47.1478 30.4176L46.7398 29.1832ZM52.7466 27.9887C53.0603 27.8143 53.1733 27.4186 52.9989 27.1048C52.8245 26.791 52.4287 26.678 52.115 26.8525L52.7466 27.9887ZM56.8153 23.4378C56.5564 23.6865 56.5482 24.098 56.7969 24.3568C57.0456 24.6157 57.4571 24.6239 57.716 24.3752L56.8153 23.4378ZM61.3878 20.1175C61.6069 19.8332 61.5541 19.425 61.2697 19.2059C60.9853 18.9868 60.5772 19.0397 60.3581 19.324L61.3878 20.1175ZM62.9947 15.1455C62.8366 15.4678 62.9696 15.8573 63.2918 16.0155C63.6141 16.1737 64.0035 16.0407 64.1617 15.7184L62.9947 15.1455ZM65.7425 10.6866C65.7848 10.3301 65.53 10.0068 65.1736 9.96457C64.8171 9.92231 64.4938 10.177 64.4516 10.5335L65.7425 10.6866ZM63.7028 5.98278C63.8712 6.29981 64.2647 6.42027 64.5817 6.25184C64.8988 6.08342 65.0192 5.68988 64.8508 5.37286L63.7028 5.98278ZM61.1826 1.73968C60.8642 1.57384 60.4716 1.6975 60.3058 2.01588C60.1399 2.33426 60.2636 2.7268 60.582 2.89264L61.1826 1.73968ZM56.499 2.22209C56.8545 2.17247 57.1025 1.84403 57.0529 1.48849C57.0033 1.13295 56.6748 0.884951 56.3193 0.934571L56.499 2.22209ZM51.8015 2.7331C51.5038 2.9337 51.4251 3.33765 51.6257 3.63537C51.8263 3.93308 52.2302 4.01181 52.5279 3.81122L51.8015 2.7331ZM49.4216 6.8575C49.629 6.5645 49.5596 6.15884 49.2666 5.95142C48.9736 5.74401 48.5679 5.8134 48.3605 6.1064L49.4216 6.8575ZM46.2205 10.8261C46.1285 11.1731 46.3351 11.529 46.6821 11.621C47.0291 11.7131 47.385 11.5064 47.4771 11.1594L46.2205 10.8261ZM46.8632 16.2832C46.8609 15.9242 46.5681 15.635 46.2091 15.6373C45.8502 15.6395 45.561 15.9323 45.5632 16.2913L46.8632 16.2832ZM46.1634 21.7277C46.2369 22.0791 46.5813 22.3043 46.9327 22.2308C47.2841 22.1573 47.5094 21.8129 47.4359 21.4615L46.1634 21.7277ZM48.9462 26.4691C48.8138 26.1354 48.436 25.9722 48.1023 26.1046C47.7686 26.237 47.6055 26.6148 47.7379 26.9485L48.9462 26.4691ZM50.4882 31.9815C50.715 32.2598 51.1244 32.3016 51.4027 32.0748C51.681 31.848 51.7228 31.4386 51.496 31.1603L50.4882 31.9815ZM55.7689 34.53C55.4481 34.3688 55.0574 34.4982 54.8963 34.819C54.7351 35.1398 54.8645 35.5304 55.1853 35.6916L55.7689 34.53ZM60.8303 37.5037C61.1836 37.5673 61.5216 37.3325 61.5852 36.9792C61.6488 36.6259 61.414 36.2879 61.0607 36.2243L60.8303 37.5037ZM66.683 36.6904C66.324 36.6901 66.0327 36.9808 66.0323 37.3397C66.0319 37.6987 66.3226 37.9901 66.6816 37.9904L66.683 36.6904ZM72.5047 37.636C72.8613 37.5946 73.1168 37.2719 73.0754 36.9153C73.034 36.5587 72.7114 36.3032 72.3548 36.3446L72.5047 37.636ZM77.9888 35.4375C77.637 35.5087 77.4095 35.8517 77.4807 36.2035C77.5519 36.5554 77.8949 36.7829 78.2467 36.7117L77.9888 35.4375ZM83.8949 35.3662C84.2412 35.2719 84.4456 34.9146 84.3512 34.5683C84.2569 34.2219 83.8997 34.0176 83.5533 34.1119L83.8949 35.3662ZM89.0314 32.4488C88.691 32.5626 88.5073 32.9309 88.6211 33.2714C88.735 33.6118 89.1032 33.7955 89.4437 33.6817L89.0314 32.4488ZM94.892 31.6928C95.2256 31.5604 95.3888 31.1826 95.2564 30.8489C95.124 30.5152 94.7461 30.3521 94.4125 30.4845L94.892 31.6928ZM99.6583 28.2103C99.3342 28.3647 99.1966 28.7526 99.351 29.0767C99.5054 29.4008 99.8933 29.5384 100.217 29.384L99.6583 28.2103ZM105.633 26.1706C105.913 25.9454 105.957 25.5363 105.732 25.2567C105.507 24.977 105.097 24.9329 104.818 25.158L105.633 26.1706ZM109.151 20.4813C108.947 20.777 109.022 21.1817 109.318 21.3852C109.614 21.5888 110.018 21.5141 110.222 21.2184L109.151 20.4813ZM113.059 15.0533C113.142 14.704 112.927 14.3536 112.577 14.2705C112.228 14.1874 111.878 14.4032 111.795 14.7524L113.059 15.0533ZM111.571 8.63128C111.69 8.96985 112.061 9.14755 112.4 9.02819C112.738 8.90883 112.916 8.53761 112.797 8.19905L111.571 8.63128ZM107.861 3.19567C107.508 3.13352 107.171 3.36976 107.109 3.72333C107.046 4.07689 107.283 4.41389 107.636 4.47604L107.861 3.19567ZM101.917 6.54399C102.197 6.31921 102.242 5.91009 102.017 5.63019C101.792 5.35028 101.383 5.30559 101.103 5.53037L101.917 6.54399ZM97.0292 10.632C96.8561 10.9465 96.9707 11.3418 97.2853 11.5149C97.5998 11.688 97.995 11.5733 98.1681 11.2588L97.0292 10.632ZM96.127 16.4951C96.2084 16.1455 95.991 15.7961 95.6414 15.7146C95.2918 15.6332 94.9423 15.8507 94.8609 16.2003L96.127 16.4951ZM94.4429 22.1847C94.4761 22.5421 94.7928 22.8049 95.1503 22.7717C95.5077 22.7384 95.7705 22.4217 95.7373 22.0643L94.4429 22.1847ZM97.1294 27.4805C96.9883 27.1504 96.6064 26.9971 96.2763 27.1381C95.9462 27.2792 95.7929 27.6611 95.9339 27.9912L97.1294 27.4805ZM98.9996 33.1165C99.2214 33.3988 99.63 33.4479 99.9123 33.2261C100.195 33.0044 100.244 32.5958 100.022 32.3135L98.9996 33.1165ZM103.996 36.3527C103.719 36.1246 103.309 36.1644 103.081 36.4417C102.853 36.7189 102.893 37.1285 103.17 37.3566L103.996 36.3527ZM108.093 40.6681C108.408 40.8398 108.803 40.7234 108.974 40.4081C109.146 40.0928 109.03 39.6981 108.714 39.5264L108.093 40.6681ZM113.94 41.7835C113.599 41.6717 113.232 41.8576 113.12 42.1988C113.008 42.5399 113.194 42.9071 113.535 43.0189L113.94 41.7835ZM119.233 44.2287C119.591 44.2511 119.9 43.9788 119.923 43.6206C119.945 43.2623 119.673 42.9536 119.314 42.9312L119.233 44.2287ZM124.489 42.2675C124.149 42.3801 123.964 42.7477 124.076 43.0886C124.189 43.4295 124.556 43.6145 124.897 43.5019L124.489 42.2675ZM129.948 40.9581C130.248 40.762 130.333 40.3592 130.137 40.0586C129.941 39.7579 129.538 39.6732 129.237 39.8693L129.948 40.9581ZM133.735 36.7229C133.439 36.9268 133.365 37.3316 133.569 37.6271C133.773 37.9225 134.178 37.9967 134.473 37.7928L133.735 36.7229ZM139.124 35.1259C139.455 34.9868 139.61 34.6057 139.471 34.2748C139.332 33.9439 138.951 33.7884 138.62 33.9275L139.124 35.1259ZM144.191 32.6919C143.832 32.7024 143.55 33.0018 143.56 33.3606C143.571 33.7194 143.87 34.0018 144.229 33.9913L144.191 32.6919ZM149.465 34.7234C149.81 34.8239 150.171 34.626 150.271 34.2814C150.372 33.9367 150.174 33.5759 149.829 33.4754L149.465 34.7234ZM155.011 35.5813C154.692 35.4181 154.3 35.545 154.137 35.8648C153.974 36.1845 154.101 36.576 154.421 36.7392L155.011 35.5813ZM159.09 39.4961C159.39 39.6946 159.793 39.6129 159.991 39.3138C160.19 39.0146 160.108 38.6112 159.809 38.4128L159.09 39.4961ZM164.317 41.6658C164.033 41.4457 163.625 41.4973 163.405 41.7809C163.185 42.0646 163.236 42.4729 163.52 42.6929L164.317 41.6658ZM0.279602 8.64012C0.543288 9.64825 0.845404 10.6215 1.18359 11.5604L2.40666 11.1198C2.08191 10.2182 1.79129 9.28224 1.53729 8.31116L0.279602 8.64012ZM3.80401 17.0836C4.88715 18.876 6.12632 20.4973 7.49282 21.9549L8.44121 21.0658C7.13585 19.6734 5.95198 18.1245 4.91663 16.4112L3.80401 17.0836ZM12.1099 25.9599C13.7818 27.1375 15.5589 28.1432 17.4079 28.9863L17.9473 27.8035C16.1672 26.9918 14.4607 26.0255 12.8585 24.897L12.1099 25.9599ZM23.1423 31.0388C25.1047 31.5667 27.1072 31.9416 29.1173 32.1725L29.2656 30.881C27.3165 30.6571 25.3775 30.2939 23.48 29.7834L23.1423 31.0388ZM35.1882 32.4413C37.2419 32.3897 39.2707 32.195 41.2394 31.8665L41.0255 30.5842C39.1172 30.9026 37.1489 31.0917 35.1556 31.1417L35.1882 32.4413ZM47.1478 30.4176C49.1454 29.7573 51.028 28.944 52.7466 27.9887L52.115 26.8525C50.4742 27.7645 48.6673 28.5461 46.7398 29.1832L47.1478 30.4176ZM57.716 24.3752C58.4756 23.6454 59.1623 22.8704 59.7652 22.0521L58.7187 21.281C58.1628 22.0354 57.5257 22.7553 56.8153 23.4378L57.716 24.3752ZM59.7229 22.1038C60.3006 21.4683 60.859 20.8038 61.3878 20.1175L60.3581 19.324C59.8516 19.9814 59.3159 20.6189 58.761 21.2293L59.7229 22.1038ZM64.1617 15.7184C64.9733 14.0652 65.5442 12.3598 65.7425 10.6866L64.4516 10.5335C64.2748 12.0249 63.7596 13.5873 62.9947 15.1455L64.1617 15.7184ZM64.8508 5.37286C64.4391 4.59787 63.8901 3.86905 63.1925 3.19806L62.2914 4.13501C62.8942 4.71485 63.3582 5.33432 63.7028 5.98278L64.8508 5.37286ZM63.1925 3.19806C62.5595 2.58923 61.8855 2.10584 61.1826 1.73968L60.582 2.89264C61.17 3.19894 61.7436 3.60822 62.2914 4.13501L63.1925 3.19806ZM56.3193 0.934571C54.7305 1.15631 53.1837 1.80184 51.8015 2.7331L52.5279 3.81122C53.7726 2.97259 55.1353 2.41242 56.499 2.22209L56.3193 0.934571ZM48.3605 6.1064C47.8923 6.76787 47.4841 7.47213 47.1502 8.20667L48.3337 8.74461C48.6321 8.08811 48.9986 7.45495 49.4216 6.8575L48.3605 6.1064ZM47.1502 8.20667C46.7673 9.04914 46.4594 9.92553 46.2205 10.8261L47.4771 11.1594C47.6986 10.3243 47.9827 9.51679 48.3337 8.74461L47.1502 8.20667ZM45.5632 16.2913C45.5744 18.0964 45.787 19.9282 46.1634 21.7277L47.4359 21.4615C47.0753 19.7379 46.8738 17.9928 46.8632 16.2832L45.5632 16.2913ZM47.7379 26.9485C48.0771 27.8035 48.4498 28.6365 48.8516 29.44L50.0143 28.8586C49.6294 28.0888 49.2719 27.2898 48.9462 26.4691L47.7379 26.9485ZM48.8516 29.44C49.3175 30.3719 49.8658 31.2176 50.4882 31.9815L51.496 31.1603C50.9347 30.4714 50.4382 29.7064 50.0143 28.8586L48.8516 29.44ZM55.1853 35.6916C56.8939 36.5501 58.7981 37.1376 60.8303 37.5037L61.0607 36.2243C59.1257 35.8757 57.345 35.3219 55.7689 34.53L55.1853 35.6916ZM66.6816 37.9904C68.5754 37.9924 70.5289 37.8653 72.5047 37.636L72.3548 36.3446C70.4209 36.5691 68.5186 36.6924 66.683 36.6904L66.6816 37.9904ZM78.2467 36.7117C80.1488 36.3267 82.0422 35.8707 83.8949 35.3662L83.5533 34.1119C81.7254 34.6096 79.86 35.0588 77.9888 35.4375L78.2467 36.7117ZM89.4437 33.6817C91.3617 33.0403 93.192 32.3674 94.892 31.6928L94.4125 30.4845C92.7341 31.1505 90.9262 31.8152 89.0314 32.4488L89.4437 33.6817ZM100.217 29.384C101.177 28.9269 102.047 28.4857 102.81 28.0713L102.19 26.9287C101.45 27.3306 100.601 27.7615 99.6583 28.2103L100.217 29.384ZM102.81 28.0713C103.753 27.5595 104.706 26.917 105.633 26.1706L104.818 25.158C103.945 25.8611 103.056 26.4584 102.19 26.9287L102.81 28.0713ZM110.222 21.2184C111.518 19.3348 112.541 17.2339 113.059 15.0533L111.795 14.7524C111.32 16.7465 110.376 18.7015 109.151 20.4813L110.222 21.2184ZM112.797 8.19905C112.426 7.14864 111.886 6.12202 111.156 5.13548L110.111 5.90905C110.766 6.79387 111.244 7.70583 111.571 8.63128L112.797 8.19905ZM111.118 5.0892C110.142 3.99633 109.028 3.4008 107.861 3.19567L107.636 4.47604C108.498 4.62753 109.355 5.06655 110.149 5.95533L111.118 5.0892ZM101.103 5.53037C100.039 6.38519 99.1617 7.32933 98.6171 8.10081L99.6792 8.8505C100.145 8.19051 100.935 7.33294 101.917 6.54399L101.103 5.53037ZM98.6171 8.10081C98.0218 8.94424 97.4934 9.78853 97.0292 10.632L98.1681 11.2588C98.608 10.4594 99.1106 9.65605 99.6792 8.8505L98.6171 8.10081ZM94.8609 16.2003C94.3861 18.2393 94.2624 20.2434 94.4429 22.1847L95.7373 22.0643C95.5696 20.2614 95.684 18.3976 96.127 16.4951L94.8609 16.2003ZM95.9339 27.9912C96.7105 29.8093 97.7508 31.5267 98.9996 33.1165L100.022 32.3135C98.8371 30.8051 97.8575 29.1851 97.1294 27.4805L95.9339 27.9912ZM103.17 37.3566C104.683 38.6017 106.339 39.713 108.093 40.6681L108.714 39.5264C107.03 38.6093 105.444 37.5438 103.996 36.3527L103.17 37.3566ZM113.535 43.0189C114.476 43.3273 115.432 43.5925 116.396 43.8117L116.684 42.544C115.76 42.3339 114.844 42.0796 113.94 41.7835L113.535 43.0189ZM116.396 43.8117C117.387 44.0368 118.33 44.1721 119.233 44.2287L119.314 42.9312C118.485 42.8792 117.61 42.7545 116.684 42.544L116.396 43.8117ZM124.897 43.5019C126.738 42.8937 128.389 41.9752 129.948 40.9581L129.237 39.8693C127.727 40.855 126.182 41.7085 124.489 42.2675L124.897 43.5019ZM134.473 37.7928C135.971 36.7587 137.483 35.8158 139.124 35.1259L138.62 33.9275C136.857 34.6688 135.259 35.6706 133.735 36.7229L134.473 37.7928ZM144.229 33.9913C145.795 33.9456 147.523 34.1569 149.465 34.7234L149.829 33.4754C147.769 32.8746 145.906 32.6418 144.191 32.6919L144.229 33.9913ZM154.421 36.7392C155.872 37.4801 157.425 38.3911 159.09 39.4961L159.809 38.4128C158.108 37.2843 156.513 36.3476 155.011 35.5813L154.421 36.7392Z" fill="#D9E3FE"/>
</svg>
