<svg width="40" height="61" viewBox="0 0 40 61" fill="none" xmlns="http://www.w3.org/2000/svg">
<rect y="11" width="40" height="40" rx="4" fill="#E9EFFF"/>
<path fill-rule="evenodd" clip-rule="evenodd" d="M14.5884 30.0021C14.4867 30.3816 14.712 30.7715 15.0915 30.8731L24.3151 33.3414C24.6947 33.4429 25.0848 33.2176 25.1865 32.8381L32.5241 5.45366C32.9309 3.93567 32.0299 2.37575 30.5118 1.9695L25.4114 0.604617C23.8932 0.198363 22.3328 1.09961 21.9261 2.61761L14.5884 30.0021ZM25.4614 1.70983C24.3229 1.40477 23.1527 2.0804 22.8476 3.2189L22.5714 4.24962C22.5206 4.43937 22.6332 4.6344 22.8229 4.68525L30.7251 6.80262C30.9148 6.85347 31.1099 6.74086 31.1607 6.55111L31.4369 5.52039C31.742 4.3819 31.0663 3.21166 29.9278 2.9066L25.4614 1.70983Z" fill="#365AC1"/>
<path fill-rule="evenodd" clip-rule="evenodd" d="M10.3955 50.9329C10.2938 51.3124 10.5191 51.7023 10.8986 51.8038L17.4809 53.5642C17.8605 53.6657 18.2506 53.4404 18.3523 53.0609L23.3127 34.5486C23.4143 34.1691 23.1891 33.7791 22.8095 33.6776L16.2272 31.9172C15.8477 31.8157 15.4576 32.0411 15.3559 32.4206L10.3955 50.9329ZM18.392 35.0468C18.0125 34.9451 17.6225 35.1703 17.5208 35.5498L13.8384 49.2927C13.7367 49.6722 13.9619 50.0623 14.3414 50.164L15.3721 50.4402C15.7516 50.5418 16.1417 50.3166 16.2434 49.9371L19.9258 36.1942C20.0275 35.8147 19.8023 35.4247 19.4228 35.323L18.392 35.0468Z" fill="#365AC1"/>
<path fill-rule="evenodd" clip-rule="evenodd" d="M10.7447 54.8436L11.5733 51.7515L12.3978 51.9724L11.5693 55.0646C11.5286 55.2164 11.6187 55.3724 11.7705 55.4131L14.9184 56.2565C15.0702 56.2972 15.2262 56.2071 15.2669 56.0553L16.0954 52.9632L16.92 53.1841L16.0914 56.2763C15.9287 56.8835 15.3046 57.2438 14.6974 57.0811L13.5358 56.7698L12.5599 60.4117C12.4989 60.6394 12.2649 60.7745 12.0372 60.7135C11.8095 60.6525 11.6744 60.4185 11.7354 60.1908L12.7112 56.5489L11.5496 56.2376C10.9424 56.0749 10.582 55.4508 10.7447 54.8436Z" fill="#365AC1"/>
</svg>
