<svg width="42" height="42" viewBox="0 0 42 42" fill="none" xmlns="http://www.w3.org/2000/svg">
<g id="Medico/Bold/Weight Scale">
<g id="Weight Scale">
<path id="Vector" fill-rule="evenodd" clip-rule="evenodd" d="M12.295 17.6695C12.295 12.6957 16.7911 9.47702 21.2187 9.47702C25.6462 9.47702 30.1424 12.6957 30.1424 17.6695C30.1424 18.4333 30.11 19.0258 30.0434 19.4825C29.9761 19.9434 29.8783 20.2333 29.7693 20.4146C29.67 20.5796 29.56 20.6588 29.4233 20.7025C29.2667 20.7526 29.0436 20.7655 28.7116 20.7253C28.3822 20.6854 27.99 20.5995 27.5095 20.4859C27.4048 20.4611 27.2961 20.4351 27.1837 20.4081C26.7888 20.3136 26.3475 20.2079 25.8658 20.106C24.6215 19.8429 23.0873 19.6002 21.2187 19.6002C19.3501 19.6002 17.8158 19.8429 16.5716 20.106C16.0899 20.2079 15.6487 20.3135 15.2537 20.4081C15.1413 20.4351 15.0326 20.4611 14.9278 20.4859C14.4474 20.5995 14.0552 20.6854 13.7258 20.7253C13.3938 20.7655 13.1706 20.7526 13.0141 20.7025C12.8774 20.6588 12.7674 20.5796 12.6681 20.4146C12.5591 20.2333 12.4613 19.9434 12.394 19.4825C12.3274 19.0258 12.295 18.4333 12.295 17.6695ZM16.0448 12.8624C15.8792 13.0037 15.7206 13.1504 15.5697 13.302L16.2469 13.9792C16.6137 14.346 16.6137 14.9408 16.2469 15.3076C15.88 15.6744 15.2853 15.6744 14.9185 15.3076L14.4213 14.8104C14.1187 15.3525 13.9036 15.9275 13.792 16.5221H14.6433C15.1621 16.5221 15.5827 16.9426 15.5827 17.4614C15.5827 17.9802 15.1621 18.4007 14.6433 18.4007H13.7382C13.7505 18.5425 13.7661 18.6676 13.7846 18.7779C13.8375 19.0931 13.9043 19.2227 13.9335 19.265C13.9375 19.2708 13.9395 19.2746 13.9395 19.2746C13.9395 19.2746 13.9445 19.2767 13.9575 19.2803C14.0162 19.2967 14.1507 19.3129 14.4275 19.2837C14.6989 19.2552 15.0315 19.1924 15.465 19.1033L15.7542 19.0433C16.1103 18.9691 16.5144 18.8849 16.9539 18.8041C17.8774 18.6343 18.9795 18.4745 20.2796 18.4202L20.2794 18.4007V14.6434C20.2794 14.1246 20.6999 13.704 21.2187 13.704C21.7375 13.704 22.158 14.1246 22.158 14.6434V18.4007L22.1578 18.4202C23.4579 18.4745 24.56 18.6343 25.4835 18.8041C25.923 18.8849 26.3271 18.9691 26.6831 19.0433L26.9724 19.1033C27.4059 19.1924 27.7385 19.2552 28.0099 19.2837C28.2866 19.3129 28.4212 19.2967 28.4799 19.2803C28.4929 19.2767 28.4979 19.2746 28.4979 19.2746L28.5003 19.2704L28.5038 19.265C28.5331 19.2227 28.5999 19.0931 28.6528 18.7779C28.6713 18.6676 28.6869 18.5425 28.6992 18.4007H27.7941C27.2753 18.4007 26.8547 17.9802 26.8547 17.4614C26.8547 16.9426 27.2753 16.5221 27.7941 16.5221H28.6454C28.5338 15.9275 28.3187 15.3525 28.0161 14.8104L27.5189 15.3076C27.1521 15.6744 26.5573 15.6744 26.1905 15.3076C25.8237 14.9408 25.8237 14.346 26.1905 13.9792L26.8676 13.302C26.7168 13.1504 26.5582 13.0037 26.3926 12.8624C26.1859 12.6862 25.9697 12.5199 25.7457 12.3642C25.7147 12.4082 25.6796 12.4502 25.6403 12.4896L24.7009 13.4289C24.3341 13.7957 23.7393 13.7957 23.3725 13.4289C23.0057 13.0621 23.0057 12.4673 23.3725 12.1005L24.0293 11.4437C23.4225 11.2031 22.7915 11.0348 22.158 10.9498V11.8254C22.158 12.3441 21.7375 12.7647 21.2187 12.7647C20.6999 12.7647 20.2794 12.3441 20.2794 11.8254V10.9498C19.6458 11.0348 19.0149 11.2031 18.4081 11.4437L19.0649 12.1005C19.4317 12.4673 19.4317 13.0621 19.0649 13.4289C18.6981 13.7957 18.1033 13.7957 17.7365 13.4289L16.7971 12.4896C16.7578 12.4502 16.7226 12.4082 16.6917 12.3642C16.4676 12.5199 16.2515 12.6862 16.0448 12.8624Z" fill="#365AC1"/>
<g id="Vector_2">
<path fill-rule="evenodd" clip-rule="evenodd" d="M12.295 17.6695C12.295 12.6957 16.7912 9.47702 21.2187 9.47702C25.6463 9.47702 30.1424 12.6957 30.1424 17.6695C30.1424 18.4333 30.1101 19.0258 30.0434 19.4825C29.9761 19.9434 29.8783 20.2333 29.7693 20.4146C29.67 20.5796 29.56 20.6588 29.4233 20.7025C29.2668 20.7526 29.0436 20.7655 28.7116 20.7253C28.3822 20.6854 27.9901 20.5995 27.5096 20.4859C27.4052 20.4612 27.2971 20.4353 27.1852 20.4085C26.7902 20.3139 26.3475 20.2079 25.8658 20.106C24.6216 19.8429 23.0873 19.6002 21.2187 19.6002C19.3501 19.6002 17.8159 19.8429 16.5716 20.106C16.09 20.2079 15.6489 20.3135 15.254 20.4081C15.1416 20.435 15.0327 20.4611 14.9279 20.4859C14.4474 20.5995 14.0552 20.6854 13.7258 20.7253C13.3939 20.7655 13.1707 20.7526 13.0142 20.7025C12.8775 20.6588 12.7674 20.5796 12.6682 20.4146C12.5591 20.2333 12.4613 19.9434 12.3941 19.4825C12.3274 19.0258 12.295 18.4333 12.295 17.6695ZM29.6728 17.4614C29.6728 20.6253 28.8719 20.4586 26.4857 19.9616C25.2173 19.6975 23.5009 19.3401 21.2187 19.3401C18.9366 19.3401 17.2202 19.6975 15.9518 19.9616C13.5656 20.4586 12.7647 20.6253 12.7647 17.4614C12.7647 13.3111 17.0685 9.94669 21.2187 9.94669C25.369 9.94669 29.6728 13.3111 29.6728 17.4614Z" fill="#365AC1"/>
<path fill-rule="evenodd" clip-rule="evenodd" d="M6.90075 6.90075C5.25 8.55151 5.25 11.2084 5.25 16.522V25.9154C5.25 31.2291 5.25 33.886 6.90075 35.5367C8.55151 37.1875 11.2084 37.1875 16.522 37.1875H25.9154C31.2291 37.1875 33.886 37.1875 35.5367 35.5367C37.1875 33.886 37.1875 31.2291 37.1875 25.9154V16.522C37.1875 11.2084 37.1875 8.55151 35.5367 6.90075C33.886 5.25 31.2291 5.25 25.9154 5.25H16.522C11.2084 5.25 8.55151 5.25 6.90075 6.90075ZM21.2187 8.53768C16.4235 8.53768 11.3557 12.0378 11.3557 17.6695C11.3557 18.4536 11.3885 19.0971 11.4646 19.6181C11.54 20.135 11.6624 20.5647 11.8632 20.8987C12.0738 21.2489 12.3633 21.4806 12.728 21.5972C13.073 21.7076 13.4532 21.7045 13.8388 21.6578C14.2269 21.6108 14.6665 21.5129 15.1441 21.4C15.2533 21.3741 15.365 21.3474 15.4793 21.32C15.8727 21.2258 16.2978 21.124 16.766 21.025C17.968 20.7708 19.4344 20.5396 21.2187 20.5396C23.0031 20.5396 24.4695 20.7708 25.6715 21.025C26.1396 21.124 26.5646 21.2258 26.958 21.32C27.0723 21.3474 27.1841 21.3741 27.2934 21.4C27.771 21.5129 28.2105 21.6108 28.5987 21.6578C28.9843 21.7045 29.3645 21.7076 29.7094 21.5972C30.0742 21.4806 30.3637 21.2489 30.5743 20.8987C30.7751 20.5647 30.8975 20.135 30.9729 19.6181C31.0489 19.0971 31.0818 18.4536 31.0818 17.6695C31.0818 12.0378 26.014 8.53768 21.2187 8.53768Z" fill="#365AC1"/>
</g>
</g>
</g>
</svg>
