<svg width="212" height="55" viewBox="0 0 212 55" fill="none" xmlns="http://www.w3.org/2000/svg">
<path d="M0.551758 53.5293C0.291785 53.7768 0.281721 54.1883 0.529278 54.4482C0.776836 54.7082 1.18827 54.7183 1.44824 54.4707L0.551758 53.5293ZM94.0673 3.03215L93.9458 2.39361L94.0673 3.03215ZM136.871 5.13826L136.54 5.69738L136.871 5.13826ZM146.373 27.463L145.727 27.3949L146.373 27.463ZM132.875 45.8915L133.057 46.5156L132.875 45.8915ZM120.614 43.0893L120.039 43.3923L120.614 43.0893ZM150.014 28.6214L149.964 27.9733L150.014 28.6214ZM212 41.6793L208.905 34.8416L204.531 40.9409L212 41.6793ZM3.61978 52.4189C3.88171 52.1734 3.89503 51.7621 3.64953 51.5001C3.40404 51.2382 2.9927 51.2249 2.73078 51.4704L3.61978 52.4189ZM7.14296 47.4081C6.87658 47.6488 6.85571 48.0598 7.09636 48.3262C7.337 48.5926 7.74803 48.6135 8.01441 48.3728L7.14296 47.4081ZM12.4873 44.4167C12.7588 44.1819 12.7885 43.7714 12.5537 43.4999C12.3188 43.2284 11.9083 43.1987 11.6368 43.4335L12.4873 44.4167ZM16.2222 39.5623C15.945 39.7905 15.9053 40.2001 16.1334 40.4773C16.3615 40.7544 16.7712 40.7942 17.0483 40.566L16.2222 39.5623ZM21.7057 36.8357C21.989 36.6151 22.0398 36.2067 21.8193 35.9235C21.5988 35.6402 21.1904 35.5894 20.9071 35.8099L21.7057 36.8357ZM25.6977 32.191C25.4081 32.4031 25.3452 32.8098 25.5573 33.0995C25.7693 33.3891 26.176 33.452 26.4657 33.2399L25.6977 32.191ZM31.3324 29.7925C31.6286 29.5897 31.7043 29.1852 31.5015 28.889C31.2987 28.5927 30.8942 28.517 30.598 28.7198L31.3324 29.7925ZM35.6099 25.4094C35.307 25.6022 35.2178 26.0039 35.4106 26.3068C35.6033 26.6096 36.0051 26.6989 36.308 26.5061L35.6099 25.4094ZM41.3929 23.3921C41.7023 23.2101 41.8055 22.8117 41.6234 22.5023C41.4413 22.1929 41.0429 22.0897 40.7336 22.2717L41.3929 23.3921ZM45.9674 19.3172C45.6516 19.488 45.5341 19.8824 45.7049 20.1981C45.8756 20.5139 46.2701 20.6314 46.5858 20.4607L45.9674 19.3172ZM51.8809 17.7215C52.2028 17.5625 52.3348 17.1727 52.1758 16.8508C52.0168 16.529 51.6269 16.397 51.3051 16.556L51.8809 17.7215ZM56.7388 13.9962C56.4113 14.1431 56.2648 14.5277 56.4117 14.8553C56.5586 15.1828 56.9432 15.3293 57.2708 15.1824L56.7388 13.9962ZM62.7543 12.8456C63.0871 12.711 63.2479 12.3322 63.1133 11.9993C62.9788 11.6665 62.6 11.5058 62.2671 11.6403L62.7543 12.8456ZM67.8844 9.4909C67.5468 9.61293 67.372 9.98554 67.494 10.3232C67.616 10.6608 67.9887 10.8355 68.3263 10.7135L67.8844 9.4909ZM73.9632 8.7927C74.305 8.68316 74.4934 8.31722 74.3838 7.97536C74.2743 7.6335 73.9084 7.44516 73.5665 7.5547L73.9632 8.7927ZM79.3226 5.82465C78.977 5.92178 78.7755 6.28068 78.8727 6.62628C78.9698 6.97187 79.3287 7.17329 79.6743 7.07616L79.3226 5.82465ZM85.4409 5.56478C85.7897 5.47986 86.0036 5.12826 85.9187 4.77947C85.8337 4.43067 85.4821 4.21676 85.1333 4.30168L85.4409 5.56478ZM90.9932 2.98097C90.6417 3.05395 90.4159 3.39805 90.4889 3.74954C90.5619 4.10103 90.906 4.3268 91.2575 4.25382L90.9932 2.98097ZM96.8485 3.20195C97.2028 3.1442 97.4432 2.81015 97.3855 2.45584C97.3277 2.10154 96.9937 1.86113 96.6394 1.91889L96.8485 3.20195ZM102.062 1.1632C101.705 1.20484 101.45 1.52765 101.492 1.88421C101.533 2.24077 101.856 2.49606 102.213 2.45442L102.062 1.1632ZM107.606 1.94333C107.965 1.91737 108.234 1.60607 108.208 1.24803C108.182 0.889984 107.871 0.620774 107.512 0.646733L107.606 1.94333ZM112.983 0.379553C112.624 0.388196 112.34 0.686133 112.349 1.04501C112.357 1.4039 112.655 1.68782 113.014 1.67918L112.983 0.379553ZM118.422 1.70039C118.78 1.71264 119.081 1.43173 119.093 1.07295C119.106 0.714178 118.825 0.413398 118.466 0.401143L118.422 1.70039ZM123.947 0.787278C123.59 0.747699 123.269 1.00486 123.229 1.36165C123.189 1.71845 123.447 2.03977 123.803 2.07935L123.947 0.787278ZM129.105 2.94361C129.455 3.0221 129.803 2.80176 129.881 2.45146C129.96 2.10116 129.739 1.75356 129.389 1.67506L129.105 2.94361ZM134.693 3.32519C134.362 3.18588 133.981 3.34115 133.842 3.67199C133.703 4.00284 133.858 4.38399 134.189 4.52331L134.693 3.32519ZM139.052 7.49655C139.325 7.73039 139.735 7.69915 139.969 7.42677C140.203 7.15439 140.172 6.74402 139.899 6.51018L139.052 7.49655ZM144.077 11.6215C143.901 11.3091 143.504 11.1992 143.192 11.376C142.879 11.5528 142.769 11.9494 142.946 12.2618L144.077 11.6215ZM145.169 18.0557C145.251 18.4052 145.601 18.6221 145.95 18.5401C146.3 18.4581 146.517 18.1083 146.435 17.7588L145.169 18.0557ZM147.182 24.2615C147.18 23.9025 146.888 23.6128 146.529 23.6143C146.17 23.6159 145.88 23.9082 145.882 24.2672L147.182 24.2615ZM145.43 30.509C145.394 30.8661 145.654 31.1852 146.011 31.2218C146.368 31.2584 146.687 30.9985 146.724 30.6414L145.43 30.509ZM145.384 36.9097C145.516 36.5757 145.352 36.1982 145.018 36.0664C144.684 35.9347 144.306 36.0986 144.175 36.4325L145.384 36.9097ZM140.774 41.2296C140.502 41.4647 140.473 41.8752 140.708 42.1465C140.943 42.4178 141.354 42.4472 141.625 42.2121L140.774 41.2296ZM136.081 45.4765C136.414 45.342 136.575 44.9632 136.44 44.6304C136.306 44.2975 135.927 44.1366 135.594 44.271L136.081 45.4765ZM129.525 45.8001C129.167 45.8239 128.895 46.1335 128.919 46.4917C128.943 46.8499 129.253 47.121 129.611 47.0973L129.525 45.8001ZM122.712 45.9461C123.03 46.1114 123.423 45.9871 123.588 45.6684C123.753 45.3498 123.629 44.9574 123.31 44.7921L122.712 45.9461ZM120.476 40.13C120.483 39.7711 120.198 39.4741 119.839 39.4667C119.481 39.4592 119.184 39.7442 119.176 40.1031L120.476 40.13ZM122.732 34.5983C122.437 34.8026 122.363 35.2075 122.567 35.5027C122.772 35.7979 123.177 35.8715 123.472 35.6672L122.732 34.5983ZM128.902 33.0667C129.241 32.9483 129.419 32.5776 129.301 32.2387C129.183 31.8998 128.812 31.721 128.473 31.8394L128.902 33.0667ZM134.518 30.1532C134.167 30.2315 133.947 30.579 134.025 30.9294C134.103 31.2797 134.451 31.5002 134.801 31.4219L134.518 30.1532ZM140.861 30.3026C141.216 30.2489 141.46 29.9177 141.407 29.5627C141.353 29.2078 141.022 28.9635 140.667 29.0172L140.861 30.3026ZM146.859 28.2476C146.502 28.2832 146.241 28.6016 146.277 28.9588C146.312 29.316 146.63 29.5768 146.988 29.5412L146.859 28.2476ZM153.314 29.0145C153.672 28.9863 153.94 28.6734 153.911 28.3155C153.883 27.9577 153.57 27.6903 153.212 27.7185L153.314 29.0145ZM159.721 27.2422C159.363 27.265 159.091 27.574 159.114 27.9322C159.136 28.2905 159.445 28.5624 159.804 28.5395L159.721 27.2422ZM166.288 28.2381C166.647 28.229 166.93 27.9308 166.921 27.5719C166.912 27.2131 166.614 26.9295 166.255 26.9385L166.288 28.2381ZM172.811 26.9652C172.452 26.9519 172.151 27.232 172.137 27.5907C172.124 27.9494 172.404 28.251 172.763 28.2644L172.811 26.9652ZM179.203 28.7617C179.56 28.8047 179.884 28.5507 179.927 28.1943C179.97 27.8379 179.716 27.5141 179.359 27.4711L179.203 28.7617ZM185.845 28.573C185.494 28.4953 185.147 28.7164 185.07 29.0669C184.992 29.4173 185.213 29.7644 185.563 29.8422L185.845 28.573ZM191.774 31.5637C192.114 31.6776 192.483 31.4939 192.597 31.1535C192.711 30.8131 192.527 30.4447 192.187 30.3308L191.774 31.5637ZM198.309 32.7387C197.982 32.5905 197.597 32.7354 197.449 33.0623C197.3 33.3893 197.445 33.7745 197.772 33.9227L198.309 32.7387ZM203.517 36.8673C203.828 37.0457 204.225 36.9378 204.404 36.6263C204.582 36.3148 204.474 35.9176 204.163 35.7392L203.517 36.8673ZM209.715 39.2408C209.419 39.0372 209.015 39.1117 208.811 39.4073C208.607 39.703 208.682 40.1077 208.977 40.3114L209.715 39.2408ZM1.44824 54.4707C2.16741 53.7859 2.89115 53.1018 3.61978 52.4189L2.73078 51.4704C1.99949 52.1558 1.27326 52.8422 0.551758 53.5293L1.44824 54.4707ZM8.01441 48.3728C9.48326 47.0459 10.9734 45.7262 12.4873 44.4167L11.6368 43.4335C10.1153 44.7496 8.61819 46.0755 7.14296 47.4081L8.01441 48.3728ZM17.0483 40.566C18.5751 39.3093 20.1268 38.065 21.7057 36.8357L20.9071 35.8099C19.3184 37.0468 17.7575 38.2986 16.2222 39.5623L17.0483 40.566ZM26.4657 33.2399C28.0592 32.0732 29.6807 30.9233 31.3324 29.7925L30.598 28.7198C28.9346 29.8586 27.3018 31.0165 25.6977 32.191L26.4657 33.2399ZM36.308 26.5061C37.9719 25.447 39.6662 24.4082 41.3929 23.3921L40.7336 22.2717C38.9935 23.2957 37.2862 24.3424 35.6099 25.4094L36.308 26.5061ZM46.5858 20.4607C48.3182 19.5237 50.0827 18.61 51.8809 17.7215L51.3051 16.556C49.4923 17.4517 47.7136 18.3728 45.9674 19.3172L46.5858 20.4607ZM57.2708 15.1824C59.0652 14.3777 60.8925 13.5981 62.7543 12.8456L62.2671 11.6403C60.3902 12.399 58.5479 13.1849 56.7388 13.9962L57.2708 15.1824ZM68.3263 10.7135C70.1719 10.0464 72.0504 9.4056 73.9632 8.7927L73.5665 7.5547C71.6385 8.17248 69.7449 8.81842 67.8844 9.4909L68.3263 10.7135ZM79.6743 7.07616C81.5637 6.54512 83.4855 6.04087 85.4409 5.56478L85.1333 4.30168C83.1632 4.78137 81.2266 5.28948 79.3226 5.82465L79.6743 7.07616ZM91.2575 4.25382C92.2266 4.05262 93.2036 3.85819 94.1888 3.67069L93.9458 2.39361C92.9535 2.58245 91.9694 2.77829 90.9932 2.98097L91.2575 4.25382ZM94.1888 3.67069C95.0309 3.51043 95.9199 3.35333 96.8485 3.20195L96.6394 1.91889C95.6999 2.07203 94.7996 2.23112 93.9458 2.39361L94.1888 3.67069ZM102.213 2.45442C103.95 2.25149 105.759 2.07724 107.606 1.94333L107.512 0.646733C105.645 0.782089 103.817 0.958172 102.062 1.1632L102.213 2.45442ZM113.014 1.67918C114.822 1.63563 116.635 1.63934 118.422 1.70039L118.466 0.401143C116.651 0.33915 114.813 0.335464 112.983 0.379553L113.014 1.67918ZM123.803 2.07935C125.651 2.28431 127.43 2.56839 129.105 2.94361L129.389 1.67506C127.66 1.28772 125.833 0.996557 123.947 0.787278L123.803 2.07935ZM134.189 4.52331C135.03 4.87753 135.816 5.26823 136.54 5.69738L137.203 4.57915C136.422 4.11622 135.582 3.69951 134.693 3.32519L134.189 4.52331ZM136.54 5.69738C137.459 6.24263 138.295 6.84597 139.052 7.49655L139.899 6.51018C139.084 5.81055 138.188 5.16306 137.203 4.57915L136.54 5.69738ZM142.946 12.2618C143.986 14.0998 144.704 16.0723 145.169 18.0557L146.435 17.7588C145.946 15.6742 145.187 13.5829 144.077 11.6215L142.946 12.2618ZM145.882 24.2672C145.887 25.3668 145.83 26.4184 145.727 27.3949L147.02 27.5312C147.128 26.5082 147.187 25.4092 147.182 24.2615L145.882 24.2672ZM145.727 27.3949C145.624 28.373 145.532 29.513 145.43 30.509L146.724 30.6414C146.837 29.5289 146.909 28.5815 147.02 27.5312L145.727 27.3949ZM144.175 36.4325C143.5 38.1424 142.458 39.77 140.774 41.2296L141.625 42.2121C143.482 40.6024 144.64 38.7952 145.384 36.9097L144.175 36.4325ZM135.594 44.271C134.713 44.6266 133.749 44.9599 132.693 45.2674L133.057 46.5156C134.151 46.197 135.156 45.8498 136.081 45.4765L135.594 44.271ZM132.693 45.2674C131.802 45.5268 130.701 45.7221 129.525 45.8001L129.611 47.0973C130.871 47.0137 132.066 46.8041 133.057 46.5156L132.693 45.2674ZM123.31 44.7921C122.379 44.3089 121.645 43.651 121.189 42.7862L120.039 43.3923C120.644 44.5399 121.598 45.3686 122.712 45.9461L123.31 44.7921ZM121.189 42.7862C120.672 41.8061 120.459 40.9247 120.476 40.13L119.176 40.1031C119.154 41.1588 119.44 42.2569 120.039 43.3923L121.189 42.7862ZM123.472 35.6672C124.882 34.6908 126.731 33.8248 128.902 33.0667L128.473 31.8394C126.24 32.6194 124.273 33.5317 122.732 34.5983L123.472 35.6672ZM134.801 31.4219C136.737 30.9893 138.776 30.6178 140.861 30.3026L140.667 29.0172C138.557 29.3361 136.488 29.7129 134.518 30.1532L134.801 31.4219ZM146.988 29.5412C148.019 29.4385 149.047 29.3481 150.064 29.2694L149.964 27.9733C148.937 28.0527 147.9 28.1439 146.859 28.2476L146.988 29.5412ZM150.064 29.2694C151.152 29.1853 152.236 29.0993 153.314 29.0145L153.212 27.7185C152.132 27.8034 151.051 27.8893 149.964 27.9733L150.064 29.2694ZM159.804 28.5395C161.973 28.4011 164.132 28.2923 166.288 28.2381L166.255 26.9385C164.078 26.9932 161.901 27.103 159.721 27.2422L159.804 28.5395ZM172.763 28.2644C174.904 28.3438 177.048 28.5015 179.203 28.7617L179.359 27.4711C177.164 27.2061 174.984 27.0458 172.811 26.9652L172.763 28.2644ZM185.563 29.8422C187.616 30.2974 189.684 30.8644 191.774 31.5637L192.187 30.3308C190.052 29.6167 187.94 29.0377 185.845 28.573L185.563 29.8422ZM197.772 33.9227C199.664 34.7802 201.578 35.7569 203.517 36.8673L204.163 35.7392C202.189 34.6088 200.239 33.6133 198.309 32.7387L197.772 33.9227Z" fill="#D9E3FE"/>
</svg>
