<svg width="169" height="40" viewBox="0 0 169 40" fill="none" xmlns="http://www.w3.org/2000/svg">
<path d="M0.576928 1.96842C0.304408 1.73474 0.272916 1.32439 0.506589 1.05187C0.740262 0.779354 1.15061 0.747862 1.42313 0.981533L0.576928 1.96842ZM76.8513 37.9453L76.7651 38.5896L76.8513 37.9453ZM110.579 34.3435L110.214 33.8055L110.579 34.3435ZM117.076 16.1116L116.434 16.2157L117.076 16.1116ZM105.574 2.02009L105.722 1.38707L105.574 2.02009ZM96.0127 4.80559L95.4204 4.53789L96.0127 4.80559ZM119.9 15.0243L119.887 15.6741L119.9 15.0243ZM168.289 1.82643L165.585 8.82783L160.874 2.98508L168.289 1.82643ZM3.74421 2.95155C4.01912 3.18241 4.05484 3.59241 3.82399 3.86733C3.59314 4.14224 3.18313 4.17796 2.90822 3.94711L3.74421 2.95155ZM7.64272 7.8274C7.36218 7.60342 7.31632 7.19442 7.5403 6.91388C7.76428 6.63334 8.17327 6.58748 8.45382 6.81146L7.64272 7.8274ZM13.2635 10.5383C13.5506 10.7538 13.6086 11.1613 13.3931 11.4484C13.1776 11.7355 12.7701 11.7935 12.483 11.578L13.2635 10.5383ZM17.4451 15.1736C17.1507 14.9681 17.0787 14.5629 17.2842 14.2685C17.4897 13.9742 17.8949 13.9022 18.1893 14.1077L17.4451 15.1736ZM23.2384 17.4927C23.5404 17.6867 23.628 18.0889 23.4339 18.3909C23.2399 18.6929 22.8378 18.7804 22.5357 18.5864L23.2384 17.4927ZM27.7618 21.7934C27.4519 21.6122 27.3476 21.214 27.5288 20.9042C27.7101 20.5943 28.1082 20.49 28.4181 20.6712L27.7618 21.7934ZM33.7303 23.6227C34.0479 23.7899 34.1699 24.183 34.0026 24.5006C33.8354 24.8183 33.4423 24.9402 33.1246 24.773L33.7303 23.6227ZM38.6156 27.5035C38.2905 27.3512 38.1504 26.9643 38.3026 26.6392C38.4549 26.3141 38.8419 26.174 39.167 26.3262L38.6156 27.5035ZM44.7265 28.7702C45.0585 28.9067 45.2169 29.2865 45.0804 29.6185C44.9439 29.9505 44.564 30.109 44.232 29.9725L44.7265 28.7702ZM49.9629 32.1684C49.6246 32.0481 49.4479 31.6764 49.5682 31.3382C49.6885 31 50.0602 30.8233 50.3984 30.9436L49.9629 32.1684ZM56.17 32.8399C56.5136 32.9437 56.7081 33.3065 56.6043 33.6501C56.5005 33.9938 56.1378 34.1882 55.7941 34.0844L56.17 32.8399ZM61.7073 35.7174C61.3591 35.6301 61.1476 35.277 61.2349 34.9288C61.3223 34.5806 61.6753 34.3691 62.0235 34.4565L61.7073 35.7174ZM67.9477 35.7964C68.2996 35.8675 68.5272 36.2103 68.4561 36.5622C68.385 36.9141 68.0421 37.1417 67.6902 37.0706L67.9477 35.7964ZM73.729 38.15C73.3743 38.0947 73.1316 37.7623 73.1869 37.4076C73.2422 37.0529 73.5746 36.8102 73.9293 36.8655L73.729 38.15ZM79.7694 37.6281C80.1266 37.6633 80.3877 37.9814 80.3525 38.3387C80.3174 38.6959 79.9992 38.957 79.642 38.9218L79.7694 37.6281ZM85.4126 39.3151C85.0538 39.3012 84.7743 38.9992 84.7882 38.6405C84.802 38.2817 85.1041 38.0022 85.4628 38.0161L85.4126 39.3151ZM91.1704 38.0628C91.5293 38.0543 91.8271 38.3383 91.8357 38.6972C91.8442 39.056 91.5603 39.3539 91.2014 39.3625L91.1704 38.0628ZM96.9889 39.0076C96.6318 39.0444 96.3126 38.7847 96.2758 38.4276C96.239 38.0705 96.4987 37.7512 96.8558 37.7145L96.9889 39.0076ZM102.458 36.8342C102.808 36.7565 103.155 36.9776 103.233 37.3281C103.311 37.6786 103.09 38.0257 102.739 38.1034L102.458 36.8342ZM108.331 36.319C108.004 36.4659 107.619 36.3194 107.472 35.9919C107.325 35.6643 107.472 35.2797 107.8 35.1328L108.331 36.319ZM112.107 32.2658C112.364 32.0155 112.776 32.0212 113.026 32.2786C113.277 32.5359 113.271 32.9475 113.013 33.1977L112.107 32.2658ZM116.111 28.8868C115.954 29.2095 115.565 29.3438 115.242 29.1866C114.919 29.0295 114.785 28.6404 114.942 28.3177L116.111 28.8868ZM116.419 23.6334C116.48 23.2797 116.817 23.0424 117.17 23.1035C117.524 23.1645 117.761 23.5008 117.7 23.8545L116.419 23.6334ZM117.995 18.6163C118.014 18.9748 117.739 19.2807 117.38 19.2995C117.022 19.3184 116.716 19.0431 116.697 18.6846L117.995 18.6163ZM116.06 13.7537C116.004 13.3992 116.245 13.066 116.6 13.0097C116.955 12.9533 117.288 13.195 117.344 13.5495L116.06 13.7537ZM116.001 8.59242C116.15 8.91913 116.005 9.30458 115.679 9.45335C115.352 9.60212 114.966 9.45786 114.818 9.13115L116.001 8.59242ZM111.962 5.50137C111.68 5.28004 111.63 4.8715 111.851 4.58886C112.073 4.30622 112.481 4.25651 112.764 4.47783L111.962 5.50137ZM108.183 2.08769C108.523 2.20429 108.704 2.57404 108.587 2.91356C108.47 3.25309 108.101 3.4338 107.761 3.31721L108.183 2.08769ZM102.926 2.37413C102.567 2.37059 102.279 2.07671 102.283 1.71774C102.286 1.35878 102.58 1.07065 102.939 1.07419L102.926 2.37413ZM97.4623 2.32642C97.7701 2.1417 98.1694 2.2415 98.3541 2.54932C98.5388 2.85714 98.439 3.25641 98.1312 3.44113L97.4623 2.32642ZM96.4093 8.13393C96.5485 8.46482 96.3931 8.84592 96.0622 8.98512C95.7313 9.12433 95.3502 8.96893 95.211 8.63804L96.4093 8.13393ZM101.456 13.1613C101.116 13.0455 100.934 12.6762 101.05 12.3363C101.166 11.9965 101.535 11.815 101.875 11.9307L101.456 13.1613ZM108.955 13.5291C109.31 13.5809 109.556 13.911 109.504 14.2662C109.452 14.6214 109.122 14.8673 108.767 14.8154L108.955 13.5291ZM116.175 15.5334C115.817 15.5136 115.542 15.207 115.562 14.8485C115.582 14.4901 115.888 14.2156 116.247 14.2354L116.175 15.5334ZM123.141 14.4461C123.499 14.454 123.784 14.7513 123.776 15.1102C123.768 15.4691 123.471 15.7537 123.112 15.7458L123.141 14.4461ZM129.581 15.8229C129.222 15.8245 128.93 15.5347 128.929 15.1757C128.927 14.8167 129.217 14.5245 129.576 14.523L129.581 15.8229ZM135.982 14.3112C136.34 14.2867 136.65 14.5573 136.675 14.9154C136.699 15.2736 136.429 15.5837 136.071 15.6082L135.982 14.3112ZM142.542 14.8611C142.188 14.9207 141.852 14.6821 141.793 14.3281C141.733 13.9741 141.972 13.6388 142.326 13.5792L142.542 14.8611ZM148.529 12.1449C148.873 12.0421 149.235 12.2376 149.338 12.5815C149.441 12.9255 149.245 13.2877 148.901 13.3904L148.529 12.1449ZM155.023 11.1112C154.696 11.2584 154.311 11.1122 154.164 10.7847C154.017 10.4573 154.163 10.0726 154.491 9.92543L155.023 11.1112ZM160.124 6.95137C160.431 6.76471 160.831 6.86197 161.018 7.16861C161.204 7.47525 161.107 7.87515 160.8 8.06181L160.124 6.95137ZM166.168 4.37182C165.883 4.59041 165.475 4.53676 165.257 4.25199C165.038 3.96723 165.092 3.55918 165.376 3.3406L166.168 4.37182ZM1.42313 0.981533C2.19081 1.63978 2.96433 2.29667 3.74421 2.95155L2.90822 3.94711C2.12467 3.28915 1.34774 2.62935 0.576928 1.96842L1.42313 0.981533ZM8.45382 6.81146C10.0278 8.06809 11.6298 9.31201 13.2635 10.5383L12.483 11.578C10.8381 10.3433 9.22592 9.09137 7.64272 7.8274L8.45382 6.81146ZM18.1893 14.1077C19.8379 15.2587 21.5198 16.3885 23.2384 17.4927L22.5357 18.5864C20.8023 17.4727 19.1065 16.3336 17.4451 15.1736L18.1893 14.1077ZM28.4181 20.6712C30.1504 21.6844 31.9201 22.6696 33.7303 23.6227L33.1246 24.773C31.2967 23.8105 29.5101 22.816 27.7618 21.7934L28.4181 20.6712ZM39.167 26.3262C40.9793 27.1751 42.8315 27.9909 44.7265 28.7702L44.232 29.9725C42.3175 29.1852 40.4462 28.361 38.6156 27.5035L39.167 26.3262ZM50.3984 30.9436C52.2805 31.6129 54.2036 32.246 56.17 32.8399L55.7941 34.0844C53.8075 33.4844 51.8645 32.8447 49.9629 32.1684L50.3984 30.9436ZM62.0235 34.4565C63.9571 34.9414 65.9312 35.3889 67.9477 35.7964L67.6902 37.0706C65.654 36.6591 63.6603 36.2072 61.7073 35.7174L62.0235 34.4565ZM73.9293 36.8655C74.922 37.0202 75.9247 37.1655 76.9375 37.301L76.7651 38.5896C75.743 38.4528 74.7311 38.3062 73.729 38.15L73.9293 36.8655ZM76.9375 37.301C77.8218 37.4194 78.7703 37.5297 79.7694 37.6281L79.642 38.9218C78.6285 38.822 77.6651 38.71 76.7651 38.5896L76.9375 37.301ZM85.4628 38.0161C87.316 38.0877 89.2381 38.1089 91.1704 38.0628L91.2014 39.3625C89.2395 39.4093 87.2902 39.3877 85.4126 39.3151L85.4628 38.0161ZM96.8558 37.7145C98.7989 37.5145 100.687 37.2267 102.458 36.8342L102.739 38.1034C100.91 38.5088 98.9716 38.8036 96.9889 39.0076L96.8558 37.7145ZM107.8 35.1328C108.685 34.7359 109.494 34.2943 110.214 33.8055L110.944 34.8814C110.151 35.4191 109.274 35.8962 108.331 36.319L107.8 35.1328ZM110.214 33.8055C110.913 33.3319 111.542 32.8159 112.107 32.2658L113.013 33.1977C112.394 33.8006 111.706 34.3648 110.944 34.8814L110.214 33.8055ZM114.942 28.3177C115.672 26.818 116.145 25.2253 116.419 23.6334L117.7 23.8545C117.408 25.5477 116.903 27.2606 116.111 28.8868L114.942 28.3177ZM116.697 18.6846C116.651 17.8139 116.559 16.984 116.434 16.2157L117.718 16.0075C117.85 16.8214 117.947 17.698 117.995 18.6163L116.697 18.6846ZM116.434 16.2157C116.31 15.4468 116.184 14.5326 116.06 13.7537L117.344 13.5495C117.485 14.4366 117.582 15.1738 117.718 16.0075L116.434 16.2157ZM114.818 9.13115C114.217 7.8128 113.336 6.57728 111.962 5.50137L112.764 4.47783C114.318 5.69521 115.323 7.10406 116.001 8.59242L114.818 9.13115ZM107.761 3.31721C107.051 3.07338 106.275 2.85095 105.427 2.65311L105.722 1.38707C106.609 1.59401 107.428 1.82829 108.183 2.08769L107.761 3.31721ZM105.427 2.65311C104.721 2.48859 103.852 2.38326 102.926 2.37413L102.939 1.07419C103.949 1.08415 104.914 1.19868 105.722 1.38707L105.427 2.65311ZM98.1312 3.44113C97.439 3.85651 96.9121 4.39399 96.605 5.07328L95.4204 4.53789C95.8581 3.56941 96.5931 2.84798 97.4623 2.32642L98.1312 3.44113ZM96.605 5.07328C96.0538 6.29297 96.0544 7.29024 96.4093 8.13393L95.211 8.63804C94.691 7.40198 94.7488 6.0238 95.4204 4.53789L96.605 5.07328ZM101.875 11.9307C103.9 12.621 106.328 13.1453 108.955 13.5291L108.767 14.8154C106.093 14.4248 103.582 13.8858 101.456 13.1613L101.875 11.9307ZM116.247 14.2354C117.476 14.3034 118.705 14.3488 119.914 14.3744L119.887 15.6741C118.664 15.6483 117.42 15.6023 116.175 15.5334L116.247 14.2354ZM119.914 14.3744C120.994 14.3972 122.072 14.4228 123.141 14.4461L123.112 15.7458C122.039 15.7224 120.967 15.6969 119.887 15.6741L119.914 14.3744ZM129.576 14.523C131.722 14.5138 133.854 14.4564 135.982 14.3112L136.071 15.6082C133.907 15.7558 131.746 15.8137 129.581 15.8229L129.576 14.523ZM142.326 13.5792C144.386 13.232 146.452 12.7658 148.529 12.1449L148.901 13.3904C146.768 14.028 144.65 14.5058 142.542 14.8611L142.326 13.5792ZM154.491 9.92543C156.35 9.09003 158.226 8.10707 160.124 6.95137L160.8 8.06181C158.856 9.24524 156.932 10.2534 155.023 11.1112L154.491 9.92543Z" fill="#D9E3FE"/>
</svg>
