<svg width="22" height="16" viewBox="0 0 22 16" fill="none" xmlns="http://www.w3.org/2000/svg">
<g id="Group">
<path id="Vector" d="M1.96733 0.5C0.880314 0.5 0 1.26364 0 2.20455V8.68186H12.5909V2.20455C12.5909 1.26273 11.7095 0.5 10.6236 0.5H1.96733ZM12.5909 10.0455H0V12.4319C0 13.3728 0.881364 14.1364 1.96733 14.1364H2.3608C2.3608 13.4131 2.69243 12.7194 3.28274 12.208C3.87306 11.6965 4.67369 11.4092 5.50852 11.4092C6.34335 11.4092 7.14399 11.6965 7.7343 12.208C8.32462 12.7194 8.65625 13.4131 8.65625 14.1364H11.804C12.0127 14.1364 12.2128 14.0646 12.3604 13.9367C12.508 13.8089 12.5909 13.6354 12.5909 13.4546V10.0455Z" fill="#365AC1"/>
<path id="Vector_2" d="M7.08239 14.1361C7.08239 13.7745 6.91657 13.4276 6.62142 13.1719C6.32626 12.9162 5.92594 12.7725 5.50853 12.7725C5.09111 12.7725 4.69079 12.9162 4.39564 13.1719C4.10048 13.4276 3.93466 13.7745 3.93466 14.1361C3.93466 14.4978 4.10048 14.8447 4.39564 15.1004C4.69079 15.3561 5.09111 15.4998 5.50853 15.4998C5.92594 15.4998 6.32626 15.3561 6.62142 15.1004C6.91657 14.8447 7.08239 14.4978 7.08239 14.1361ZM14.9517 2.54518C14.743 2.54518 14.5428 2.61701 14.3953 2.74488C14.2477 2.87274 14.1648 3.04617 14.1648 3.227V13.4543C14.1648 13.5331 14.1795 13.6083 14.2088 13.6798C14.3396 13.0081 14.7558 12.4031 15.3754 11.9839C15.995 11.5647 16.7733 11.3615 17.5571 11.4144C18.3409 11.4673 19.0735 11.7724 19.6108 12.2697C20.148 12.767 20.4511 13.4205 20.4602 14.1016C21.3552 13.9425 22.0572 13.2516 21.9963 12.3898C21.7615 9.06101 20.3995 5.86604 18.0805 3.20427C17.8997 2.99861 17.6664 2.83206 17.3987 2.7177C17.1311 2.60334 16.8366 2.54429 16.5382 2.54518H14.9517Z" fill="#365AC1"/>
<path id="Vector_3" d="M18.8864 14.1363C18.8864 13.7747 18.7205 13.4278 18.4254 13.1721C18.1302 12.9164 17.7299 12.7727 17.3125 12.7727C16.8951 12.7727 16.4948 12.9164 16.1996 13.1721C15.9045 13.4278 15.7386 13.7747 15.7386 14.1363C15.7386 14.498 15.9045 14.8449 16.1996 15.1006C16.4948 15.3563 16.8951 15.5 17.3125 15.5C17.7299 15.5 18.1302 15.3563 18.4254 15.1006C18.7205 14.8449 18.8864 14.498 18.8864 14.1363Z" fill="#365AC1"/>
</g>
</svg>
