<svg width="134" height="35" viewBox="0 0 134 35" fill="none" xmlns="http://www.w3.org/2000/svg">
<path d="M0.582538 10.1286C0.52579 9.77412 0.767143 9.44077 1.12161 9.38402C1.47609 9.32727 1.80944 9.56862 1.86619 9.92309L0.582538 10.1286ZM48.0506 25.1418L47.7174 24.5838L48.0506 25.1418ZM48.0506 1.1605L47.9006 0.528038L47.9278 0.521591L47.9554 0.517506L48.0506 1.1605ZM42.7244 10.6604L43.3019 10.3621L42.7244 10.6604ZM55 19L54.7847 19.6133L55 19ZM95.8962 10.0259L95.701 9.4059L95.719 9.40024L95.7373 9.39564L95.8962 10.0259ZM129.776 34.5L125.795 28.1372L133.295 27.871L129.776 34.5ZM2.51334 12.6093C2.62365 12.9509 2.43614 13.3172 2.09453 13.4275C1.75291 13.5379 1.38655 13.3504 1.27624 13.0087L2.51334 12.6093ZM3.8521 18.3045C3.65372 18.0053 3.73545 17.6019 4.03465 17.4035C4.33384 17.2052 4.7372 17.2869 4.93558 17.5861L3.8521 18.3045ZM8.53969 21.8305C8.80125 22.0764 8.81398 22.4877 8.5681 22.7493C8.32223 23.0109 7.91087 23.0236 7.6493 22.7777L8.53969 21.8305ZM12.3029 26.3277C11.9973 26.1393 11.9023 25.7389 12.0907 25.4333C12.279 25.1277 12.6795 25.0327 12.9851 25.2211L12.3029 26.3277ZM18.0088 27.7009C18.3439 27.8296 18.5113 28.2056 18.3826 28.5407C18.2539 28.8759 17.8779 29.0432 17.5428 28.9146L18.0088 27.7009ZM23.1573 30.5122C22.8047 30.4449 22.5735 30.1044 22.6409 29.7518C22.7082 29.3992 23.0487 29.168 23.4013 29.2353L23.1573 30.5122ZM28.9825 29.8048C29.3415 29.8103 29.628 30.1057 29.6226 30.4646C29.6171 30.8236 29.3217 31.1101 28.9627 31.1047L28.9825 29.8048ZM34.7818 30.6976C34.4271 30.7527 34.0949 30.5098 34.0398 30.155C33.9847 29.8003 34.2276 29.4681 34.5824 29.413L34.7818 30.6976ZM40.0475 28.0994C40.3887 27.9877 40.7557 28.1738 40.8674 28.515C40.979 28.8562 40.793 29.2233 40.4518 29.3349L40.0475 28.0994ZM45.8289 27.1063C45.5084 27.2681 45.1175 27.1394 44.9557 26.819C44.7939 26.4985 44.9226 26.1076 45.243 25.9458L45.8289 27.1063ZM49.9772 22.9947C50.255 22.7673 50.6645 22.8081 50.8919 23.0859C51.1193 23.3637 51.0785 23.7732 50.8007 24.0006L49.9772 22.9947ZM54.7921 19.6825C54.5862 19.9765 54.1809 20.048 53.8868 19.8421C53.5927 19.6362 53.5213 19.2309 53.7272 18.9368L54.7921 19.6825ZM56.2582 14.0249C56.3764 13.6859 56.747 13.5069 57.0859 13.6251C57.4249 13.7433 57.6039 14.1139 57.4857 14.4529L56.2582 14.0249ZM58.4669 8.61022C58.4776 8.96905 58.1955 9.26867 57.8367 9.27946C57.4779 9.29025 57.1782 9.00811 57.1674 8.64929L58.4669 8.61022ZM55.4857 3.75898C55.2499 3.48831 55.2782 3.07772 55.5489 2.84192C55.8196 2.60611 56.2301 2.63437 56.4659 2.90505L55.4857 3.75898ZM50.958 0.378765C51.3161 0.403954 51.5859 0.714672 51.5608 1.07277C51.5356 1.43087 51.2248 1.70075 50.8667 1.67556L50.958 0.378765ZM45.4749 2.89308C45.1714 3.08469 44.7699 2.99392 44.5783 2.69035C44.3867 2.38678 44.4775 1.98536 44.7811 1.79375L45.4749 2.89308ZM41.4264 7.57343C41.4381 7.21464 41.7385 6.93331 42.0973 6.94506C42.4561 6.95682 42.7374 7.25721 42.7257 7.616L41.4264 7.57343ZM45.3587 13.3637C45.604 13.6257 45.5904 14.0371 45.3283 14.2824C45.0663 14.5277 44.6549 14.5141 44.4096 14.2521L45.3587 13.3637ZM51.1644 18.3029C50.8294 18.1739 50.6624 17.7977 50.7914 17.4627C50.9205 17.1277 51.2966 16.9608 51.6316 17.0898L51.1644 18.3029ZM57.7542 19.1708C58.1011 19.2631 58.3075 19.6191 58.2152 19.9661C58.1229 20.313 57.7669 20.5194 57.4199 20.4271L57.7542 19.1708ZM62.8433 21.3742C62.4855 21.3451 62.219 21.0314 62.2481 20.6736C62.2772 20.3158 62.5909 20.0494 62.9487 20.0785L62.8433 21.3742ZM68.2146 19.9967C68.5713 19.9566 68.893 20.2134 68.933 20.5701C68.9731 20.9269 68.7163 21.2485 68.3596 21.2886L68.2146 19.9967ZM73.7553 20.1929C73.4105 20.2929 73.05 20.0944 72.95 19.7496C72.85 19.4048 73.0485 19.0443 73.3933 18.9443L73.7553 20.1929ZM78.3988 17.1376C78.7294 16.9977 79.1108 17.1523 79.2507 17.483C79.3906 17.8136 79.236 18.195 78.9054 18.3349L78.3988 17.1376ZM83.8399 16.053C83.5175 16.2109 83.1281 16.0775 82.9703 15.7551C82.8124 15.4327 82.9458 15.0433 83.2682 14.8855L83.8399 16.053ZM88.1233 12.5041C88.4472 12.3493 88.8353 12.4864 88.9901 12.8103C89.1448 13.1342 89.0077 13.5222 88.6838 13.677L88.1233 12.5041ZM93.5836 11.5286C93.2488 11.6581 92.8724 11.4917 92.7429 11.1569C92.6134 10.8221 92.7798 10.4457 93.1146 10.3162L93.5836 11.5286ZM98.8695 8.69107C99.2218 8.62181 99.5635 8.8512 99.6327 9.20344C99.702 9.55568 99.4726 9.89738 99.1204 9.96664L98.8695 8.69107ZM105.292 9.16117C104.933 9.18159 104.626 8.90759 104.606 8.54919C104.586 8.19078 104.86 7.88369 105.218 7.86327L105.292 9.16117ZM111.666 8.10481C112.021 8.15652 112.267 8.48641 112.216 8.84165C112.164 9.1969 111.834 9.44296 111.479 9.39126L111.666 8.10481ZM117.354 11.0851C117.028 10.9348 116.886 10.5487 117.036 10.2227C117.187 9.89665 117.573 9.75423 117.899 9.90454L117.354 11.0851ZM123.265 13.61C123.521 13.8623 123.523 14.2739 123.271 14.5293C123.019 14.7846 122.607 14.7871 122.352 14.5348L123.265 13.61ZM125.933 19.4688C125.768 19.1499 125.893 18.7578 126.212 18.593C126.531 18.4282 126.923 18.5531 127.088 18.872L125.933 19.4688ZM129.327 24.9371C129.414 25.2856 129.201 25.6381 128.853 25.7245C128.504 25.8109 128.152 25.5985 128.065 25.25L129.327 24.9371ZM129.015 31.3876C128.989 31.0296 129.259 30.7184 129.617 30.6926C129.975 30.6668 130.286 30.9362 130.312 31.2942L129.015 31.3876ZM1.86619 9.92309C2.0115 10.8307 2.22865 11.7276 2.51334 12.6093L1.27624 13.0087C0.971703 12.0657 0.738685 11.104 0.582538 10.1286L1.86619 9.92309ZM4.93558 17.5861C5.93828 19.0984 7.14961 20.5238 8.53969 21.8305L7.6493 22.7777C6.19038 21.4063 4.91318 19.9048 3.8521 18.3045L4.93558 17.5861ZM12.9851 25.2211C14.5438 26.1819 16.2264 27.0166 18.0088 27.7009L17.5428 28.9146C15.686 28.2017 13.9309 27.3313 12.3029 26.3277L12.9851 25.2211ZM23.4013 29.2353C25.2032 29.5796 27.07 29.7757 28.9825 29.8048L28.9627 31.1047C26.9742 31.0744 25.0324 30.8705 23.1573 30.5122L23.4013 29.2353ZM34.5824 29.413C36.3855 29.1331 38.2119 28.7 40.0475 28.0994L40.4518 29.3349C38.5494 29.9574 36.6544 30.4069 34.7818 30.6976L34.5824 29.413ZM45.243 25.9458C46.069 25.5288 46.8942 25.0752 47.7174 24.5838L48.3838 25.6999C47.5345 26.207 46.6825 26.6754 45.8289 27.1063L45.243 25.9458ZM47.7174 24.5838C48.5154 24.1073 49.2695 23.574 49.9772 22.9947L50.8007 24.0006C50.0453 24.619 49.2389 25.1894 48.3838 25.6999L47.7174 24.5838ZM53.7272 18.9368C54.8251 17.3688 55.6764 15.6935 56.2582 14.0249L57.4857 14.4529C56.8639 16.2363 55.9573 18.0183 54.7921 19.6825L53.7272 18.9368ZM57.1674 8.64929C57.108 6.67114 56.5453 4.97518 55.4857 3.75898L56.4659 2.90505C57.7739 4.40641 58.401 6.41985 58.4669 8.61022L57.1674 8.64929ZM50.8667 1.67556C50.0532 1.61833 49.1478 1.65524 48.1457 1.8035L47.9554 0.517506C49.038 0.357319 50.0386 0.314091 50.958 0.378765L50.8667 1.67556ZM48.2005 1.79297C47.0936 2.05543 46.1963 2.43779 45.4749 2.89308L44.7811 1.79375C45.6374 1.25323 46.6708 0.819614 47.9006 0.528038L48.2005 1.79297ZM42.7257 7.616C42.6914 8.66187 42.928 9.63836 43.3019 10.3621L42.1469 10.9587C41.6654 10.0266 41.3853 8.82833 41.4264 7.57343L42.7257 7.616ZM43.3019 10.3621C43.9379 11.5933 44.6077 12.5614 45.3587 13.3637L44.4096 14.2521C43.5624 13.347 42.8271 12.2755 42.1469 10.9587L43.3019 10.3621ZM51.6316 17.0898C52.696 17.4997 53.8799 17.918 55.2153 18.3867L54.7847 19.6133C53.4517 19.1455 52.2498 18.7209 51.1644 18.3029L51.6316 17.0898ZM55.2153 18.3867C56.0795 18.69 56.9254 18.9503 57.7542 19.1708L57.4199 20.4271C56.5579 20.1977 55.6799 19.9275 54.7847 19.6133L55.2153 18.3867ZM62.9487 20.0785C64.7769 20.2272 66.5264 20.1862 68.2146 19.9967L68.3596 21.2886C66.5921 21.4869 64.7587 21.5301 62.8433 21.3742L62.9487 20.0785ZM73.3933 18.9443C75.102 18.4489 76.7629 17.8298 78.3988 17.1376L78.9054 18.3349C77.2355 19.0415 75.5252 19.6797 73.7553 20.1929L73.3933 18.9443ZM83.2682 14.8855C84.8796 14.0964 86.5016 13.279 88.1233 12.5041L88.6838 13.677C87.0678 14.4493 85.4711 15.2542 83.8399 16.053L83.2682 14.8855ZM93.1146 10.3162C93.9659 9.98684 94.8272 9.68089 95.701 9.4059L96.0913 10.6459C95.2474 10.9115 94.4125 11.208 93.5836 11.5286L93.1146 10.3162ZM95.7373 9.39564C96.8124 9.12467 97.8562 8.89034 98.8695 8.69107L99.1204 9.96664C98.1305 10.1613 97.109 10.3906 96.055 10.6562L95.7373 9.39564ZM105.218 7.86327C107.562 7.72974 109.707 7.81964 111.666 8.10481L111.479 9.39126C109.615 9.11995 107.558 9.03206 105.292 9.16117L105.218 7.86327ZM117.899 9.90454C119.996 10.8716 121.772 12.1341 123.265 13.61L122.352 14.5348C120.963 13.1623 119.312 11.9875 117.354 11.0851L117.899 9.90454ZM127.088 18.872C128.08 20.7923 128.809 22.8464 129.327 24.9371L128.065 25.25C127.567 23.2409 126.871 21.2848 125.933 19.4688L127.088 18.872Z" fill="#D9E3FE"/>
</svg>
