<svg xmlns="http://www.w3.org/2000/svg" width="18" height="18" viewBox="0 0 18 18" fill="none">
    <path d="M11.7104 12.4241L13.1104 11.0241C13.299 10.8379 13.5376 10.7104 13.7972 10.6572C14.0568 10.6039 14.3263 10.6272 14.5729 10.7241L16.2792 11.4054C16.5284 11.5066 16.7422 11.6793 16.8934 11.9017C17.0447 12.1242 17.1267 12.3864 17.1292 12.6554V15.7804C17.1277 15.9634 17.0893 16.1442 17.0161 16.3119C16.9429 16.4796 16.8366 16.6308 16.7034 16.7564C16.5703 16.8819 16.4131 16.9792 16.2414 17.0424C16.0697 17.1056 15.8869 17.1334 15.7042 17.1241C3.74792 16.3804 1.33542 6.25539 0.879173 2.38039C0.857994 2.1901 0.877345 1.99748 0.935953 1.81521C0.994562 1.63294 1.0911 1.46514 1.21921 1.32285C1.34733 1.18057 1.50412 1.06702 1.67927 0.98968C1.85442 0.912342 2.04396 0.872966 2.23542 0.874141H5.25417C5.52355 0.874938 5.78654 0.956308 6.00929 1.10778C6.23205 1.25926 6.4044 1.47392 6.50417 1.72414L7.18542 3.43039C7.28558 3.67606 7.31113 3.94579 7.25889 4.2059C7.20665 4.466 7.07892 4.70495 6.89167 4.89289L5.49167 6.29289C5.49167 6.29289 6.29792 11.7491 11.7104 12.4241Z" fill="#ffffff"/>
</svg>