<svg width="18" height="18" viewBox="0 0 18 18" fill="none" xmlns="http://www.w3.org/2000/svg">
<path d="M11.7104 12.424L13.1104 11.024C13.299 10.8378 13.5376 10.7103 13.7972 10.6571C14.0568 10.6038 14.3263 10.6271 14.5729 10.724L16.2792 11.4053C16.5284 11.5065 16.7422 11.6792 16.8934 11.9016C17.0447 12.1241 17.1267 12.3863 17.1292 12.6553V15.7803C17.1277 15.9633 17.0893 16.1441 17.0161 16.3118C16.9429 16.4795 16.8366 16.6307 16.7034 16.7563C16.5703 16.8818 16.4131 16.9791 16.2414 17.0423C16.0697 17.1055 15.8869 17.1333 15.7042 17.124C3.74792 16.3803 1.33542 6.2553 0.879173 2.3803C0.857994 2.19001 0.877345 1.99739 0.935953 1.81512C0.994562 1.63284 1.0911 1.46504 1.21921 1.32276C1.34733 1.18047 1.50412 1.06693 1.67927 0.989589C1.85442 0.912251 2.04396 0.872874 2.23542 0.874049H5.25417C5.52355 0.874846 5.78654 0.956216 6.00929 1.10769C6.23205 1.25917 6.4044 1.47382 6.50417 1.72405L7.18542 3.4303C7.28558 3.67597 7.31113 3.9457 7.25889 4.20581C7.20665 4.46591 7.07892 4.70486 6.89167 4.8928L5.49167 6.2928C5.49167 6.2928 6.29792 11.749 11.7104 12.424Z" fill="white"/>
</svg>
