<svg width="20" height="16" viewBox="0 0 20 16" fill="none" xmlns="http://www.w3.org/2000/svg">
<path d="M18.5 7C19.0523 7 19.5 7.44772 19.5 8C19.5 8.55228 19.0523 9 18.5 9L18.5 7ZM0.792893 8.70711C0.402369 8.31658 0.402369 7.68342 0.792892 7.29289L7.15685 0.928933C7.54738 0.538409 8.18054 0.538409 8.57107 0.928933C8.96159 1.31946 8.96159 1.95262 8.57107 2.34315L2.91421 8L8.57107 13.6569C8.96159 14.0474 8.96159 14.6805 8.57107 15.0711C8.18054 15.4616 7.54738 15.4616 7.15686 15.0711L0.792893 8.70711ZM18.5 9L1.5 9L1.5 7L18.5 7L18.5 9Z" fill="#365AC1"/>
</svg>
