<svg width="243" height="230" viewBox="0 0 243 230" fill="none" xmlns="http://www.w3.org/2000/svg">
<path fill-rule="evenodd" clip-rule="evenodd" d="M19.3694 153.869C19.6793 153.688 19.7836 153.29 19.6024 152.98C18.7269 151.483 18.3404 149.606 18.5286 147.666C18.5633 147.309 18.3017 146.991 17.9444 146.956C17.5871 146.922 17.2694 147.183 17.2347 147.541C17.023 149.723 17.4524 151.878 18.4802 153.636C18.6614 153.946 19.0595 154.05 19.3694 153.869ZM23.0244 156.583C22.9446 156.933 23.1635 157.281 23.5135 157.361C24.4792 157.582 25.5358 157.641 26.6737 157.514C27.9179 157.376 28.9686 157.127 29.9138 156.716C30.2431 156.573 30.3941 156.19 30.2511 155.861C30.1081 155.532 29.7252 155.381 29.3959 155.524C28.6012 155.869 27.6843 156.094 26.5299 156.222C25.5251 156.334 24.6156 156.279 23.8028 156.094C23.4528 156.014 23.1043 156.233 23.0244 156.583ZM19.5892 142.67C19.8793 142.882 20.2859 142.818 20.4973 142.528C21.0257 141.803 21.6626 141.12 22.4132 140.502C23.6192 139.509 24.8089 138.678 25.9611 137.983C26.2685 137.797 26.3674 137.398 26.182 137.091C25.9967 136.783 25.5972 136.684 25.2898 136.87C24.0838 137.597 22.8422 138.464 21.5867 139.498C20.7514 140.186 20.0393 140.949 19.4468 141.762C19.2353 142.052 19.2991 142.459 19.5892 142.67ZM33.8788 152.446C34.1654 152.662 34.573 152.605 34.7891 152.319C35.359 151.563 35.9686 150.707 36.6476 149.744C37.2608 148.874 37.7887 147.982 38.2361 147.07C38.3942 146.748 38.2611 146.358 37.9388 146.2C37.6165 146.042 37.2271 146.175 37.069 146.497C36.6523 147.347 36.1595 148.18 35.585 148.995C34.9062 149.958 34.3072 150.799 33.7513 151.536C33.5351 151.822 33.5922 152.23 33.8788 152.446ZM86.9745 199.03C87.9162 200.687 89.2 202.23 90.7565 203.389C91.0443 203.604 91.4516 203.544 91.666 203.256C91.8805 202.968 91.8209 202.561 91.533 202.347C90.1406 201.309 88.9705 199.911 88.1047 198.388C87.9273 198.076 87.5305 197.966 87.2184 198.144C86.9063 198.321 86.7971 198.718 86.9745 199.03ZM39.2804 141.755C39.6361 141.804 39.9639 141.555 40.0126 141.199C40.2842 139.217 40.2706 137.171 40.0193 135.073C39.9977 134.893 39.9042 134.738 39.771 134.636C40.2166 134.681 40.7521 134.737 41.3692 134.807C41.7259 134.847 42.0478 134.591 42.088 134.234C42.1283 133.877 41.8717 133.556 41.515 133.515C40.504 133.401 39.7088 133.321 39.1655 133.27C38.8939 133.244 38.6853 133.226 38.5441 133.214C38.5059 133.21 38.4726 133.208 38.4444 133.205C38.4205 133.203 38.4002 133.202 38.3836 133.2L38.3424 133.197L38.3372 133.196L38.3317 133.196L38.3289 133.196L38.3174 133.195C38.3009 133.193 38.2777 133.191 38.2482 133.189C38.1892 133.184 38.1046 133.178 37.9957 133.173C37.7781 133.164 37.4636 133.157 37.0638 133.167C36.2642 133.187 35.1226 133.276 33.7317 133.548C33.3794 133.617 33.1497 133.959 33.2186 134.311C33.2876 134.663 33.6291 134.893 33.9814 134.824C35.2933 134.567 36.3619 134.485 37.0969 134.466C37.4643 134.457 37.7481 134.464 37.9369 134.472C38.0313 134.476 38.102 134.481 38.1475 134.485C38.1702 134.487 38.1866 134.488 38.1966 134.489L38.2066 134.49L38.2077 134.49L38.2165 134.491L38.2261 134.492L38.2383 134.493L38.2771 134.496C38.3117 134.499 38.3637 134.503 38.4325 134.509C38.5702 134.521 38.7753 134.539 39.0433 134.564C39.0567 134.566 39.0703 134.567 39.084 134.568C38.845 134.687 38.6949 134.947 38.7285 135.228C38.9687 137.232 38.9791 139.165 38.7247 141.023C38.6759 141.379 38.9248 141.707 39.2804 141.755ZM85.8893 194.127C86.2472 194.099 86.5147 193.786 86.4867 193.428C86.4139 192.497 86.4991 191.654 86.7385 190.951C87.0886 189.922 87.4738 188.929 87.8919 187.97C88.0353 187.641 87.8848 187.258 87.5557 187.114C87.2266 186.971 86.8436 187.121 86.7001 187.45C86.2676 188.443 85.8694 189.47 85.5078 190.532C85.1987 191.44 85.1076 192.466 85.1907 193.529C85.2186 193.887 85.5315 194.154 85.8893 194.127ZM95.6043 204.761C95.5859 205.12 95.8615 205.425 96.2201 205.444C97.1691 205.493 98.1544 205.396 99.166 205.128C100.224 204.849 101.2 204.482 102.099 204.038C102.421 203.879 102.553 203.489 102.394 203.168C102.235 202.846 101.845 202.714 101.523 202.873C100.705 203.277 99.8114 203.613 98.834 203.872C97.9505 204.105 97.0997 204.187 96.2869 204.146C95.9284 204.127 95.6228 204.403 95.6043 204.761ZM38.3177 129.953C38.6619 129.851 38.8581 129.489 38.756 129.145C38.2046 127.288 37.5121 125.394 36.7051 123.468C36.5663 123.137 36.1855 122.981 35.8544 123.12C35.5233 123.259 35.3674 123.64 35.5061 123.971C36.2984 125.861 36.9741 127.71 37.5097 129.515C37.6118 129.859 37.9736 130.056 38.3177 129.953ZM47.107 134.893C47.0544 135.248 47.2995 135.579 47.6546 135.632C49.546 135.912 51.6582 136.254 53.9312 136.666C54.2844 136.73 54.6227 136.495 54.6867 136.142C54.7507 135.789 54.5163 135.45 54.163 135.386C51.8751 134.972 49.7491 134.628 47.8454 134.346C47.4903 134.293 47.1597 134.538 47.107 134.893ZM33.8798 118.871C34.2004 118.709 34.3294 118.318 34.1679 117.998C33.2884 116.252 32.338 114.482 31.3343 112.692C31.1588 112.379 30.7626 112.267 30.4495 112.443C30.1364 112.618 30.0248 113.014 30.2004 113.327C31.1967 115.104 32.1377 116.857 33.0069 118.583C33.1683 118.903 33.5592 119.032 33.8798 118.871ZM90.0303 182.563C90.3291 182.762 90.7326 182.681 90.9315 182.382C92.1356 180.573 93.475 178.925 94.9234 177.431C95.1733 177.173 95.1669 176.762 94.9092 176.512C94.6514 176.262 94.2399 176.268 93.99 176.526C92.4876 178.076 91.0982 179.786 89.8494 181.661C89.6504 181.96 89.7314 182.364 90.0303 182.563ZM106.028 200.224C106.308 200.448 106.717 200.402 106.942 200.122C108.225 198.515 109.182 196.662 109.893 194.688C110.015 194.35 109.84 193.978 109.502 193.856C109.165 193.734 108.792 193.91 108.67 194.247C107.996 196.118 107.102 197.838 105.926 199.31C105.702 199.591 105.748 200 106.028 200.224ZM28.1034 108.401C28.4117 108.217 28.5125 107.818 28.3286 107.51C27.3215 105.822 26.2825 104.117 25.2255 102.4C25.0373 102.094 24.637 101.998 24.3312 102.187C24.0255 102.375 23.9302 102.775 24.1183 103.081C25.1736 104.796 26.2092 106.495 27.2122 108.176C27.3961 108.484 27.7951 108.585 28.1034 108.401ZM21.8718 98.2132C22.177 98.0241 22.2711 97.6235 22.082 97.3183C21.0384 95.6342 19.9904 93.9398 18.9496 92.236C18.7624 91.9296 18.3624 91.833 18.056 92.0201C17.7497 92.2073 17.6531 92.6073 17.8402 92.9137C18.8833 94.6212 19.9332 96.3187 20.9769 98.0031C21.166 98.3082 21.5667 98.4023 21.8718 98.2132ZM15.6462 88.0143C15.9555 87.832 16.0583 87.4335 15.876 87.1243C14.8638 85.4077 13.8711 83.6845 12.91 81.9563C12.7355 81.6426 12.3397 81.5297 12.026 81.7042C11.7123 81.8787 11.5994 82.2744 11.7739 82.5882C12.7413 84.3277 13.7396 86.0606 14.7562 87.7846C14.9385 88.0938 15.337 88.1967 15.6462 88.0143ZM59.6753 137.131C59.5995 137.482 59.8225 137.828 60.1733 137.904C62.1771 138.337 64.2498 138.821 66.3608 139.359C66.7086 139.448 67.0626 139.238 67.1513 138.89C67.2401 138.542 67.0301 138.188 66.6822 138.1C64.5543 137.557 62.4659 137.07 60.448 136.633C60.0971 136.558 59.7512 136.781 59.6753 137.131ZM9.8224 77.5806C10.1422 77.4175 10.2693 77.026 10.1062 76.7062C9.1968 74.9227 8.33372 73.1366 7.52981 71.3499C7.38252 71.0225 6.99772 70.8766 6.67035 71.0239C6.34297 71.1712 6.19699 71.5559 6.34429 71.8833C7.15797 73.6918 8.03038 75.497 8.94807 77.2968C9.11114 77.6166 9.50259 77.7436 9.8224 77.5806ZM110.603 189.293C110.958 189.346 111.289 189.102 111.342 188.747C111.648 186.719 111.8 184.67 111.865 182.698C111.877 182.339 111.596 182.039 111.237 182.027C110.878 182.015 110.577 182.296 110.566 182.655C110.502 184.591 110.353 186.589 110.057 188.553C110.003 188.908 110.248 189.239 110.603 189.293ZM4.88184 66.704C5.21799 66.578 5.38835 66.2033 5.26236 65.8672C4.55892 63.9905 3.93576 62.1163 3.40755 60.247C3.30994 59.9015 2.95075 59.7006 2.60529 59.7982C2.25984 59.8958 2.05892 60.255 2.15653 60.6005C2.69562 62.5083 3.33042 64.4168 4.04506 66.3235C4.17105 66.6596 4.54569 66.83 4.88184 66.704ZM98.839 173.129C99.0482 173.421 99.4543 173.488 99.746 173.279C101.489 172.028 103.324 170.944 105.22 170.018C105.543 169.861 105.677 169.471 105.519 169.149C105.362 168.826 104.973 168.692 104.65 168.85C102.691 169.806 100.793 170.928 98.9883 172.222C98.6966 172.431 98.6297 172.838 98.839 173.129ZM72.0487 140.247C71.9452 140.591 72.1401 140.954 72.4839 141.057C74.4964 141.662 76.5163 142.32 78.5186 143.033C78.8568 143.154 79.2286 142.977 79.3491 142.639C79.4696 142.301 79.2931 141.929 78.9549 141.809C76.9302 141.087 74.8896 140.423 72.8583 139.812C72.5146 139.709 72.1521 139.904 72.0487 140.247ZM1.56371 55.2463C1.91757 55.1858 2.15541 54.8499 2.09495 54.4961C1.76044 52.5383 1.54843 50.5894 1.47583 48.6518C1.46239 48.2931 1.16068 48.0131 0.801947 48.0266C0.443213 48.04 0.163299 48.3417 0.176741 48.7005C0.251663 50.7001 0.470253 52.706 0.813519 54.715C0.873981 55.0689 1.20985 55.3067 1.56371 55.2463ZM111.22 177.328C111.579 177.317 111.861 177.018 111.851 176.659C111.833 176.011 111.812 175.383 111.792 174.79C111.779 174.399 111.766 174.023 111.755 173.664C111.72 172.549 111.612 171.462 111.436 170.403C111.377 170.049 111.042 169.81 110.688 169.869C110.334 169.928 110.095 170.263 110.154 170.617C110.321 171.618 110.423 172.647 110.455 173.705C110.467 174.071 110.479 174.45 110.493 174.841C110.513 175.43 110.533 176.048 110.552 176.696C110.562 177.055 110.861 177.338 111.22 177.328ZM84.0826 144.483C83.9417 144.813 84.0952 145.195 84.4254 145.335C86.3863 146.172 88.3031 147.069 90.1506 148.031C90.4691 148.196 90.8616 148.073 91.0273 147.754C91.193 147.436 91.0692 147.043 90.7508 146.877C88.8706 145.899 86.9234 144.988 84.9355 144.14C84.6053 143.999 84.2234 144.152 84.0826 144.483ZM0.980465 43.3627C1.33693 43.4052 1.66029 43.1506 1.70271 42.7941C1.93153 40.8712 2.31878 38.961 2.88219 37.0659C2.98449 36.7218 2.78848 36.3599 2.44437 36.2576C2.10028 36.1553 1.73839 36.3513 1.63609 36.6954C1.05092 38.6637 0.649083 40.6466 0.41182 42.6405C0.369402 42.997 0.623992 43.3203 0.980465 43.3627ZM95.4202 150.31C95.2236 150.61 95.3077 151.013 95.608 151.209C97.4077 152.388 99.0955 153.643 100.641 154.981C100.913 155.216 101.323 155.186 101.558 154.915C101.793 154.643 101.763 154.233 101.492 153.998C99.8969 152.618 98.1618 151.327 96.3201 150.122C96.0197 149.925 95.6169 150.009 95.4202 150.31ZM110.346 167.251C110.451 167.594 110.814 167.787 111.158 167.682C113.215 167.051 115.303 166.583 117.386 166.272C117.741 166.219 117.986 165.888 117.933 165.533C117.88 165.178 117.549 164.933 117.194 164.986C115.048 165.307 112.897 165.789 110.777 166.439C110.433 166.544 110.24 166.907 110.346 167.251ZM109.172 165.027C109.497 164.875 109.637 164.488 109.484 164.163C108.565 162.204 107.393 160.369 106.014 158.649C105.789 158.369 105.38 158.324 105.1 158.549C104.82 158.773 104.775 159.183 105 159.463C106.321 161.11 107.436 162.859 108.307 164.715C108.46 165.04 108.847 165.18 109.172 165.027ZM4.14718 31.9268C4.46912 32.0856 4.85886 31.9534 5.01767 31.6314C5.85084 29.9425 6.84365 28.2658 8.01023 26.6036C8.21646 26.3098 8.14544 25.9044 7.8516 25.6982C7.55776 25.492 7.15238 25.563 6.94615 25.8568C5.74251 27.5718 4.71537 29.3057 3.85181 31.0563C3.69299 31.3782 3.82524 31.768 4.14718 31.9268ZM123.103 165.147C123.103 165.506 123.394 165.797 123.753 165.797C125.937 165.797 128.071 165.968 130.113 166.299C130.468 166.357 130.801 166.116 130.859 165.761C130.916 165.407 130.676 165.073 130.321 165.016C128.208 164.674 126.004 164.497 123.753 164.497C123.394 164.497 123.103 164.788 123.103 165.147ZM173.477 213.907C173.207 214.144 173.181 214.555 173.418 214.825C174.782 216.376 176.208 217.853 177.708 219.232C177.973 219.475 178.384 219.458 178.627 219.194C178.87 218.929 178.853 218.518 178.588 218.275C177.126 216.931 175.732 215.487 174.394 213.966C174.157 213.697 173.747 213.67 173.477 213.907ZM170.471 210.185C170.759 209.969 170.817 209.562 170.602 209.275C169.4 207.669 168.243 206.013 167.12 204.326C166.921 204.027 166.518 203.946 166.219 204.145C165.92 204.344 165.839 204.748 166.038 205.046C167.172 206.749 168.343 208.426 169.561 210.054C169.776 210.341 170.184 210.4 170.471 210.185ZM182.349 222.196C182.144 222.49 182.217 222.895 182.512 223.1C184.201 224.274 185.978 225.322 187.854 226.216C188.178 226.37 188.566 226.233 188.721 225.908C188.875 225.584 188.737 225.196 188.413 225.042C186.605 224.18 184.889 223.17 183.254 222.033C182.959 221.828 182.554 221.901 182.349 222.196ZM163.644 200.109C163.95 199.921 164.045 199.52 163.856 199.215C162.789 197.483 161.747 195.744 160.718 194.016C160.535 193.708 160.136 193.607 159.827 193.79C159.519 193.974 159.418 194.373 159.601 194.681C160.63 196.41 161.677 198.157 162.75 199.897C162.938 200.202 163.339 200.297 163.644 200.109ZM135.877 167.051C135.754 167.388 135.926 167.762 136.263 167.885C137.279 168.258 138.25 168.679 139.168 169.144C140.025 169.579 140.861 170.09 141.679 170.672C141.971 170.88 142.377 170.812 142.585 170.519C142.793 170.227 142.725 169.821 142.432 169.613C141.567 168.997 140.676 168.451 139.756 167.985C138.79 167.495 137.772 167.054 136.712 166.665C136.375 166.541 136.001 166.714 135.877 167.051ZM10.7827 22.073C11.0472 22.3158 11.4583 22.2982 11.7011 22.0338C12.974 20.6474 14.3818 19.2725 15.9331 17.9106C16.2029 17.6738 16.2296 17.2631 15.9928 16.9933C15.756 16.7236 15.3453 16.6968 15.0755 16.9337C13.4912 18.3245 12.0498 19.7318 10.7435 21.1546C10.5007 21.419 10.5183 21.8302 10.7827 22.073ZM157.376 189.67C157.683 189.485 157.783 189.086 157.598 188.778C156.529 187 155.464 185.26 154.391 183.586C154.197 183.284 153.795 183.196 153.493 183.389C153.191 183.583 153.103 183.985 153.296 184.287C154.36 185.947 155.418 187.675 156.484 189.448C156.669 189.756 157.068 189.855 157.376 189.67ZM150.81 179.437C151.1 179.225 151.163 178.818 150.95 178.529C149.688 176.804 148.396 175.198 147.055 173.751C146.811 173.487 146.4 173.472 146.137 173.716C145.873 173.96 145.858 174.371 146.102 174.634C147.4 176.036 148.661 177.602 149.901 179.296C150.113 179.586 150.52 179.649 150.81 179.437ZM193.191 227.574C193.096 227.92 193.3 228.278 193.646 228.373C195.581 228.903 197.61 229.279 199.741 229.481C200.098 229.515 200.415 229.252 200.449 228.895C200.483 228.537 200.221 228.22 199.863 228.186C197.807 227.992 195.852 227.63 193.99 227.119C193.644 227.024 193.286 227.228 193.191 227.574ZM205.206 228.968C205.227 229.326 205.535 229.6 205.893 229.579C207.855 229.464 209.895 229.212 212.017 228.813C212.37 228.746 212.602 228.407 212.535 228.054C212.469 227.701 212.129 227.469 211.776 227.535C209.706 227.925 207.721 228.169 205.817 228.281C205.459 228.302 205.186 228.609 205.206 228.968ZM19.682 14.0431C19.8943 14.3326 20.301 14.3953 20.5906 14.183C22.0996 13.0767 23.7124 11.9804 25.4338 10.8949C25.7375 10.7034 25.8284 10.302 25.637 9.99837C25.4455 9.69472 25.0441 9.60378 24.7404 9.79526C22.9949 10.896 21.3569 12.0093 19.8219 13.1346C19.5324 13.3468 19.4698 13.7536 19.682 14.0431ZM217.202 226.911C217.304 227.255 217.666 227.451 218.01 227.349C219.886 226.791 221.822 226.125 223.821 225.345C224.155 225.215 224.321 224.838 224.19 224.503C224.06 224.169 223.683 224.003 223.349 224.134C221.381 224.901 219.479 225.555 217.639 226.103C217.295 226.205 217.099 226.567 217.202 226.911ZM29.6259 7.64783C29.7995 7.96205 30.1949 8.07605 30.5091 7.90246C32.1994 6.96868 33.9765 6.04395 35.8436 5.12884C36.166 4.97086 36.2992 4.58147 36.1412 4.25911C35.9833 3.93676 35.5939 3.80352 35.2715 3.9615C33.3863 4.88545 31.5903 5.81996 29.8805 6.76456C29.5663 6.93815 29.4523 7.33361 29.6259 7.64783ZM228.573 222.616C228.725 222.941 229.112 223.081 229.437 222.928C231.203 222.1 233.015 221.189 234.875 220.19C235.191 220.02 235.31 219.626 235.14 219.31C234.97 218.993 234.576 218.875 234.26 219.045C232.42 220.033 230.629 220.934 228.885 221.751C228.56 221.904 228.42 222.291 228.573 222.616ZM40.3206 2.3179C40.4655 2.64636 40.8492 2.79519 41.1776 2.65034C42.1048 2.2414 43.0514 1.8346 44.0175 1.42995C44.3486 1.29127 44.5046 0.910424 44.3659 0.579309C44.2272 0.248193 43.8464 0.092197 43.5153 0.230875C42.5419 0.638574 41.5879 1.04859 40.653 1.46087C40.3246 1.60574 40.1757 1.98944 40.3206 2.3179ZM238.91 221.591L242.5 215L234.997 215.186L238.91 221.591Z" fill="#D9E3FE"/>
</svg>
