<svg width="40" height="61" viewBox="0 0 40 61" fill="none" xmlns="http://www.w3.org/2000/svg">
<rect y="11" width="40" height="40" rx="4" fill="#365AC1"/>
<path fill-rule="evenodd" clip-rule="evenodd" d="M14.5884 30.0023C14.4867 30.3818 14.712 30.7718 15.0915 30.8733L24.3151 33.3416C24.6947 33.4431 25.0848 33.2178 25.1865 32.8383L32.5241 5.45388C32.9309 3.93588 32.0299 2.37597 30.5118 1.96971L25.4114 0.604831C23.8932 0.198577 22.3328 1.09982 21.9261 2.61782L14.5884 30.0023ZM25.4614 1.71004C24.3229 1.40498 23.1527 2.08062 22.8476 3.21911L22.5714 4.24983C22.5206 4.43958 22.6332 4.63462 22.8229 4.68546L30.7251 6.80284C30.9148 6.85368 31.1099 6.74107 31.1607 6.55132L31.4369 5.52061C31.742 4.38211 31.0663 3.21188 29.9278 2.90682L25.4614 1.71004Z" fill="#EFF3FF"/>
<path fill-rule="evenodd" clip-rule="evenodd" d="M10.3955 50.9331C10.2938 51.3126 10.5191 51.7025 10.8986 51.804L17.4809 53.5644C17.8605 53.6659 18.2506 53.4406 18.3523 53.0611L23.3127 34.5488C23.4143 34.1693 23.1891 33.7793 22.8095 33.6778L16.2272 31.9174C15.8477 31.8159 15.4576 32.0413 15.3559 32.4208L10.3955 50.9331ZM18.392 35.047C18.0125 34.9453 17.6225 35.1705 17.5208 35.55L13.8384 49.2929C13.7367 49.6724 13.9619 50.0625 14.3414 50.1642L15.3721 50.4404C15.7516 50.5421 16.1417 50.3168 16.2434 49.9373L19.9258 36.1945C20.0275 35.815 19.8023 35.4249 19.4228 35.3232L18.392 35.047Z" fill="#EFF3FF"/>
<path fill-rule="evenodd" clip-rule="evenodd" d="M10.7447 54.8438L11.5733 51.7517L12.3978 51.9726L11.5693 55.0648C11.5286 55.2166 11.6187 55.3726 11.7705 55.4133L14.9184 56.2567C15.0702 56.2974 15.2262 56.2073 15.2669 56.0555L16.0954 52.9634L16.92 53.1843L16.0914 56.2765C15.9287 56.8837 15.3046 57.244 14.6974 57.0813L13.5358 56.77L12.5599 60.4119C12.4989 60.6396 12.2649 60.7747 12.0372 60.7137C11.8095 60.6527 11.6744 60.4187 11.7354 60.191L12.7112 56.5491L11.5496 56.2378C10.9424 56.0751 10.582 55.451 10.7447 54.8438Z" fill="#EFF3FF"/>
</svg>
