<svg width="46" height="46" viewBox="0 0 46 46" fill="none" xmlns="http://www.w3.org/2000/svg">
<g id="Overweight">
<g id="Vector" opacity="0.8">
<mask id="path-1-inside-1_3_625" fill="white">
<path d="M10.5417 20.125C10.5417 17.4785 16.7708 15.3333 23 15.3333C29.2292 15.3333 35.4583 17.4785 35.4583 20.125C35.4583 22.8867 31.9212 21.1529 29.9435 20.2381C29.8876 20.2122 29.8336 20.2828 29.8716 20.3313C33.5607 25.0448 34.4142 29.7316 28.7825 32.567C28.7631 32.5768 28.7499 32.5938 28.7502 32.6155C28.7532 32.8201 28.7827 33.1586 28.8199 33.5859C29.0295 35.9905 29.4844 41.2083 26.8333 41.2083C24.3752 41.2083 24.6896 36.9007 24.8571 34.6057C24.8873 34.191 24.9128 33.8421 24.9163 33.5961C24.9167 33.5644 24.8909 33.5417 24.8592 33.5417H21.1408C21.1091 33.5417 21.0833 33.5644 21.0837 33.5961C21.0872 33.8421 21.1126 34.191 21.1429 34.6057C21.3104 36.9007 21.6248 41.2083 19.1667 41.2083C16.5156 41.2083 16.9704 35.9905 17.18 33.5859C17.2173 33.1586 17.2468 32.8201 17.2497 32.6155C17.2501 32.5938 17.2369 32.5768 17.2175 32.567C11.5858 29.7316 12.4393 25.0448 16.1284 20.3313C16.1664 20.2828 16.1124 20.2122 16.0564 20.2381C14.0788 21.1529 10.5417 22.8867 10.5417 20.125Z"/>
</mask>
<path d="M29.9435 20.2381L33.7221 12.0697L33.7221 12.0697L29.9435 20.2381ZM29.8716 20.3313L22.7842 25.8783L22.7843 25.8784L29.8716 20.3313ZM28.7825 32.567L24.7352 24.5284L24.7352 24.5284L28.7825 32.567ZM28.7502 32.6155L19.7512 32.7447L19.7512 32.7452L28.7502 32.6155ZM28.8199 33.5859L37.7859 32.8044V32.8044L28.8199 33.5859ZM24.8571 34.6057L33.8332 35.2608V35.2608L24.8571 34.6057ZM24.9163 33.5961L15.9171 33.4695L15.9171 33.4697L24.9163 33.5961ZM21.0837 33.5961L30.0828 33.4697L30.0828 33.4695L21.0837 33.5961ZM21.1429 34.6057L12.1668 35.2608L12.1668 35.2608L21.1429 34.6057ZM17.18 33.5859L8.21404 32.8044L8.21404 32.8044L17.18 33.5859ZM17.2497 32.6155L26.2488 32.7451L26.2488 32.7451L17.2497 32.6155ZM17.2175 32.567L13.1702 40.6057L13.1703 40.6057L17.2175 32.567ZM16.1284 20.3313L9.04106 14.7843L9.04105 14.7843L16.1284 20.3313ZM16.0564 20.2381L19.835 28.4065L19.835 28.4065L16.0564 20.2381ZM26.4583 20.125C26.4583 19.5574 26.5431 18.4455 27.1497 17.1482C27.8109 15.7341 28.9132 14.4949 30.3389 13.663C32.8129 12.2194 34.9916 12.6945 35.0287 12.7011C35.3816 12.7643 35.4334 12.8219 35.031 12.6582C34.6672 12.5102 34.3147 12.3438 33.7221 12.0697L26.165 28.4065C26.6813 28.6453 29.3066 29.9628 31.8564 30.4194C33.025 30.6286 36.2116 31.0765 39.4106 29.2098C43.466 26.8434 44.4583 22.7714 44.4583 20.125H26.4583ZM33.7221 12.0697C29.1619 9.96026 24.803 12.0825 22.7355 14.7737C20.6913 17.4343 19.7838 22.0447 22.7842 25.8783L36.959 14.7843C39.9214 18.5694 39.0219 23.1202 37.0092 25.74C34.9731 28.3901 30.6692 30.49 26.165 28.4065L33.7221 12.0697ZM22.7843 25.8784C23.3874 26.649 23.6947 27.1948 23.8287 27.4956C23.9667 27.8053 23.8151 27.6137 23.8232 27.0281C23.8275 26.719 23.8771 26.3387 24.0101 25.9269C24.144 25.5121 24.3335 25.1558 24.5353 24.8746C24.9326 24.3208 25.2002 24.2943 24.7352 24.5284L32.8298 40.6057C37.8077 38.0994 41.7336 33.5901 41.8215 27.2787C41.8939 22.0746 39.2346 17.6918 36.9589 14.7843L22.7843 25.8784ZM24.7352 24.5284C22.4546 25.6767 19.6895 28.4479 19.7512 32.7447L37.7493 32.4864C37.8104 36.7396 35.0715 39.477 32.8298 40.6057L24.7352 24.5284ZM19.7512 32.7452C19.7601 33.364 19.8328 34.1249 19.8539 34.3675L37.7859 32.8044C37.7764 32.695 37.7686 32.6051 37.7616 32.523C37.7547 32.4412 37.7499 32.3816 37.7465 32.3369C37.743 32.2906 37.7424 32.2786 37.743 32.29C37.7433 32.2954 37.7476 32.3694 37.7493 32.4859L19.7512 32.7452ZM19.8539 34.3675C19.9748 35.7543 20.0248 36.7124 19.9627 37.2328C19.9244 37.5542 19.9435 36.7393 20.6445 35.6098C21.054 34.95 21.7883 34.0384 22.9913 33.3024C24.2506 32.5319 25.6111 32.2083 26.8333 32.2083V50.2083C31.1564 50.2083 34.281 47.7725 35.9387 45.1012C37.2935 42.9182 37.6829 40.6485 37.836 39.365C38.1569 36.6752 37.8747 33.8222 37.7859 32.8044L19.8539 34.3675ZM26.8333 32.2083C27.8906 32.2083 29.1167 32.4538 30.3135 33.1004C31.4858 33.7337 32.286 34.565 32.7914 35.2736C33.2746 35.9512 33.5073 36.5385 33.6123 36.85C33.7206 37.1715 33.7529 37.3791 33.7579 37.4124C33.7635 37.449 33.738 37.2677 33.7477 36.7866C33.7569 36.3308 33.7897 35.8566 33.8332 35.2608L15.8809 33.9505C15.814 34.8675 15.5748 37.5732 15.9632 40.1229C16.1536 41.3728 16.6264 43.6077 18.1365 45.7252C19.982 48.3129 23.0495 50.2083 26.8333 50.2083V32.2083ZM33.8332 35.2608C33.8546 34.9669 33.9073 34.2984 33.9154 33.7226L15.9171 33.4697C15.918 33.4112 15.9195 33.3811 15.9191 33.3915C15.9187 33.3998 15.9174 33.4263 15.9141 33.4779C15.9071 33.5904 15.897 33.7301 15.8809 33.9505L33.8332 35.2608ZM33.9154 33.7228C33.9966 27.9518 29.1601 24.5417 24.8592 24.5417V42.5417C20.6217 42.5417 15.8368 39.177 15.9171 33.4695L33.9154 33.7228ZM30.0828 33.4695C30.1632 39.177 25.3782 42.5417 21.1408 42.5417V24.5417C16.8399 24.5417 12.0034 27.9518 12.0846 33.7228L30.0828 33.4695ZM30.119 33.9505C30.1029 33.7301 30.0929 33.5904 30.0858 33.4779C30.0826 33.4263 30.0813 33.3998 30.0809 33.3915C30.0805 33.3811 30.082 33.4112 30.0828 33.4697L12.0846 33.7226C12.0927 34.2984 12.1453 34.9669 12.1668 35.2608L30.119 33.9505ZM19.1667 50.2083C22.9505 50.2083 26.018 48.3129 27.8635 45.7252C29.3736 43.6077 29.8464 41.3728 30.0368 40.1229C30.4251 37.5732 30.186 34.8675 30.119 33.9505L12.1668 35.2608C12.2103 35.8566 12.2431 36.3308 12.2523 36.7866C12.262 37.2677 12.2365 37.449 12.242 37.4124C12.2471 37.3791 12.2793 37.1715 12.3877 36.85C12.4927 36.5385 12.7254 35.9512 13.2086 35.2736C13.714 34.565 14.5141 33.7337 15.6865 33.1004C16.8832 32.4538 18.1094 32.2083 19.1667 32.2083V50.2083ZM8.21404 32.8044C8.12532 33.8222 7.84309 36.6752 8.16397 39.365C8.31709 40.6485 8.70651 42.9182 10.0612 45.1012C11.719 47.7725 14.8436 50.2083 19.1667 50.2083V32.2083C20.3889 32.2083 21.7494 32.5319 23.0086 33.3024C24.2116 34.0384 24.946 34.95 25.3555 35.6098C26.0564 36.7393 26.0756 37.5542 26.0372 37.2328C25.9752 36.7124 26.0252 35.7543 26.146 34.3675L8.21404 32.8044ZM8.25068 32.4859C8.25236 32.3695 8.25664 32.2954 8.25694 32.29C8.25758 32.2786 8.25702 32.2906 8.2535 32.337C8.25012 32.3816 8.24529 32.4412 8.23836 32.523C8.23141 32.6051 8.22357 32.6951 8.21404 32.8044L26.146 34.3675C26.1672 34.1249 26.2399 33.364 26.2488 32.7451L8.25068 32.4859ZM13.1703 40.6057C10.9288 39.4772 8.18945 36.7398 8.25068 32.486L26.2488 32.7451C26.3107 28.4477 23.5451 25.6765 21.2647 24.5284L13.1703 40.6057ZM9.04105 14.7843C6.76539 17.6918 4.10604 22.0746 4.1785 27.2787C4.26638 33.59 8.19229 38.0994 13.1702 40.6057L21.2647 24.5284C20.7997 24.2943 21.0673 24.3208 21.4647 24.8746C21.6665 25.1558 21.856 25.5121 21.9899 25.9269C22.1229 26.3387 22.1725 26.719 22.1768 27.0281C22.1849 27.6137 22.0333 27.8053 22.1713 27.4956C22.3053 27.1948 22.6125 26.649 23.2157 25.8784L9.04105 14.7843ZM19.835 28.4065C15.3308 30.4901 11.0269 28.3901 8.99079 25.74C6.97808 23.1203 6.07854 18.5694 9.04106 14.7843L23.2157 25.8784C26.2162 22.0448 25.3087 17.4343 23.2645 14.7736C21.197 12.0825 16.838 9.96024 12.2779 12.0697L19.835 28.4065ZM1.54166 20.125C1.54166 22.7714 2.53394 26.8434 6.58935 29.2098C9.78835 31.0765 12.975 30.6286 14.1436 30.4194C16.6934 29.9628 19.3186 28.6453 19.835 28.4065L12.2779 12.0697C11.6853 12.3438 11.3327 12.5102 10.969 12.6582C10.5666 12.8219 10.6184 12.7643 10.9713 12.7011C11.0083 12.6945 13.1871 12.2194 15.6611 13.663C17.0868 14.4949 18.1891 15.7341 18.8503 17.1482C19.4569 18.4455 19.5417 19.5574 19.5417 20.125H1.54166ZM24.8592 24.5417H21.1408V42.5417H24.8592V24.5417ZM44.4583 20.125C44.4583 15.6937 41.8528 12.779 40.1822 11.3733C38.4198 9.89041 36.4026 8.93235 34.6971 8.29926C31.2141 7.00637 27.0175 6.33334 23 6.33334V24.3333C25.2116 24.3333 27.2442 24.7329 28.4331 25.1742C29.0635 25.4082 28.9929 25.4826 28.5932 25.1463C28.2852 24.8871 26.4583 23.233 26.4583 20.125H44.4583ZM23 6.33334C18.9825 6.33334 14.7859 7.00637 11.3029 8.29926C9.59738 8.93235 7.58016 9.89041 5.81781 11.3733C4.14714 12.779 1.54166 15.6937 1.54166 20.125H19.5417C19.5417 23.233 17.7148 24.8871 17.4068 25.1463C17.0071 25.4826 16.9365 25.4082 17.5669 25.1742C18.7557 24.7329 20.7884 24.3333 23 24.3333V6.33334Z" fill="white" mask="url(#path-1-inside-1_3_625)"/>
</g>
<path id="Vector (Stroke)" opacity="0.8" fill-rule="evenodd" clip-rule="evenodd" d="M23.0181 13.8334C25.1352 13.8334 26.8514 12.1171 26.8514 10C26.8514 7.88293 25.1352 6.16669 23.0181 6.16669C20.901 6.16669 19.1848 7.88293 19.1848 10C19.1848 12.1171 20.901 13.8334 23.0181 13.8334Z" fill="white"/>
</g>
</svg>
