<svg width="18" height="18" viewBox="0 0 18 18" fill="none" xmlns="http://www.w3.org/2000/svg">
<path d="M6.09516 0.18391C5.84995 -0.0613032 5.45238 -0.0613032 5.20717 0.18391C4.96195 0.429123 4.96195 0.826691 5.20717 1.0719L7.4841 3.34884H0.627907C0.281124 3.34884 0 3.62996 0 3.97674V7.32558C0 7.67236 0.281124 7.95349 0.627907 7.95349H1.25581V17.3721C1.25581 17.7189 1.53694 18 1.88372 18H16.1163C16.4631 18 16.7442 17.7189 16.7442 17.3721V7.95349H17.3721C17.7189 7.95349 18 7.67236 18 7.32558V3.97674C18 3.62996 17.7189 3.34884 17.3721 3.34884H10.5159L12.7928 1.0719C13.038 0.826691 13.038 0.429123 12.7928 0.18391C12.5476 -0.0613032 12.1501 -0.0613032 11.9048 0.18391L9 3.08875L6.09516 0.18391ZM9.62791 16.7442H8.37209V7.95349H9.62791V16.7442Z" fill="#365AC1"/>
</svg>
